<mxfile host="app.diagrams.net" agent="Mozilla/5.0 (Windows NT 10.0; Win64; x64) AppleWebKit/537.36 (KHTML, like Gecko) Chrome/129.0.0.0 Safari/537.36" version="24.7.17" pages="10">
  <diagram id="C5RBs43oDa-KdzZeNtuy" name="部屬圖">
    <mxGraphModel grid="1" page="1" gridSize="10" guides="1" tooltips="1" connect="1" arrows="1" fold="1" pageScale="1" pageWidth="827" pageHeight="1169" math="0" shadow="0">
      <root>
        <mxCell id="WIyWlLk6GJQsqaUBKTNV-0" />
        <mxCell id="WIyWlLk6GJQsqaUBKTNV-1" parent="WIyWlLk6GJQsqaUBKTNV-0" />
        <mxCell id="JtgpF99zew84CIk5fjFb-17" value="" style="verticalAlign=top;align=left;spacingTop=8;spacingLeft=2;spacingRight=12;shape=cube;size=10;direction=south;fontStyle=4;html=1;rounded=0;shadow=0;comic=0;labelBackgroundColor=none;strokeWidth=1;fontFamily=Verdana;fontSize=12" vertex="1" parent="WIyWlLk6GJQsqaUBKTNV-1">
          <mxGeometry x="430" y="330" width="330" height="250" as="geometry" />
        </mxCell>
        <mxCell id="JtgpF99zew84CIk5fjFb-1" value="" style="verticalAlign=top;align=left;spacingTop=8;spacingLeft=2;spacingRight=12;shape=cube;size=10;direction=south;fontStyle=4;html=1;rounded=0;shadow=0;comic=0;labelBackgroundColor=none;strokeWidth=1;fontFamily=Verdana;fontSize=12" vertex="1" parent="WIyWlLk6GJQsqaUBKTNV-1">
          <mxGeometry x="10" y="70" width="330" height="220" as="geometry" />
        </mxCell>
        <mxCell id="JtgpF99zew84CIk5fjFb-2" value="&amp;lt;&amp;lt; execution Environment &amp;gt;&amp;gt;&lt;div&gt;web browser&lt;/div&gt;" style="verticalAlign=top;align=center;spacingTop=8;spacingLeft=2;spacingRight=12;shape=cube;size=10;direction=south;fontStyle=4;html=1;rounded=0;shadow=0;comic=0;labelBackgroundColor=none;strokeWidth=1;fontFamily=Verdana;fontSize=12" vertex="1" parent="WIyWlLk6GJQsqaUBKTNV-1">
          <mxGeometry x="47.5" y="180" width="255" height="70" as="geometry" />
        </mxCell>
        <mxCell id="JtgpF99zew84CIk5fjFb-3" value="&amp;lt;&amp;lt; device&amp;gt;&amp;gt;&lt;div&gt;Web Client&lt;/div&gt;" style="text;strokeColor=none;fillColor=none;html=1;align=center;verticalAlign=middle;whiteSpace=wrap;rounded=0;fontSize=16;" vertex="1" parent="WIyWlLk6GJQsqaUBKTNV-1">
          <mxGeometry x="110" y="100" width="120" height="30" as="geometry" />
        </mxCell>
        <mxCell id="JtgpF99zew84CIk5fjFb-4" value="" style="endArrow=none;html=1;rounded=0;fontSize=12;startSize=8;endSize=8;curved=1;entryX=0.545;entryY=1.004;entryDx=0;entryDy=0;entryPerimeter=0;" edge="1" parent="WIyWlLk6GJQsqaUBKTNV-1">
          <mxGeometry width="50" height="50" relative="1" as="geometry">
            <mxPoint x="340" y="190" as="sourcePoint" />
            <mxPoint x="418.68000000000006" y="189.9000000000001" as="targetPoint" />
          </mxGeometry>
        </mxCell>
        <mxCell id="JtgpF99zew84CIk5fjFb-5" value="&amp;lt;&amp;lt; device&amp;gt;&amp;gt;&lt;div&gt;Web Server&lt;/div&gt;" style="text;strokeColor=none;fillColor=none;html=1;align=center;verticalAlign=middle;whiteSpace=wrap;rounded=0;fontSize=16;" vertex="1" parent="WIyWlLk6GJQsqaUBKTNV-1">
          <mxGeometry x="532" y="360" width="120" height="30" as="geometry" />
        </mxCell>
        <mxCell id="JtgpF99zew84CIk5fjFb-6" value="«component»&lt;br&gt;&lt;b&gt;Windows11&lt;/b&gt;" style="html=1;dropTarget=0;whiteSpace=wrap;" vertex="1" parent="WIyWlLk6GJQsqaUBKTNV-1">
          <mxGeometry x="482" y="430" width="220" height="60" as="geometry" />
        </mxCell>
        <mxCell id="JtgpF99zew84CIk5fjFb-7" value="" style="shape=module;jettyWidth=8;jettyHeight=4;" vertex="1" parent="JtgpF99zew84CIk5fjFb-6">
          <mxGeometry x="1" width="20" height="20" relative="1" as="geometry">
            <mxPoint x="-27" y="7" as="offset" />
          </mxGeometry>
        </mxCell>
        <mxCell id="JtgpF99zew84CIk5fjFb-8" value="" style="verticalAlign=top;align=left;spacingTop=8;spacingLeft=2;spacingRight=12;shape=cube;size=10;direction=south;fontStyle=4;html=1;rounded=0;shadow=0;comic=0;labelBackgroundColor=none;strokeWidth=1;fontFamily=Verdana;fontSize=12" vertex="1" parent="WIyWlLk6GJQsqaUBKTNV-1">
          <mxGeometry x="10" y="415" width="330" height="175" as="geometry" />
        </mxCell>
        <mxCell id="JtgpF99zew84CIk5fjFb-9" value="&amp;lt;&amp;lt; device&amp;gt;&amp;gt;&lt;div&gt;DataBase Server&lt;/div&gt;" style="text;strokeColor=none;fillColor=none;html=1;align=center;verticalAlign=middle;whiteSpace=wrap;rounded=0;fontSize=16;" vertex="1" parent="WIyWlLk6GJQsqaUBKTNV-1">
          <mxGeometry x="110" y="445" width="140" height="30" as="geometry" />
        </mxCell>
        <mxCell id="JtgpF99zew84CIk5fjFb-10" value="«component»&lt;br&gt;&lt;b&gt;Maria db&lt;/b&gt;" style="html=1;dropTarget=0;whiteSpace=wrap;" vertex="1" parent="WIyWlLk6GJQsqaUBKTNV-1">
          <mxGeometry x="70" y="505" width="220" height="50" as="geometry" />
        </mxCell>
        <mxCell id="JtgpF99zew84CIk5fjFb-11" value="" style="shape=module;jettyWidth=8;jettyHeight=4;" vertex="1" parent="JtgpF99zew84CIk5fjFb-10">
          <mxGeometry x="1" width="20" height="20" relative="1" as="geometry">
            <mxPoint x="-27" y="7" as="offset" />
          </mxGeometry>
        </mxCell>
        <mxCell id="JtgpF99zew84CIk5fjFb-14" value="&lt;div&gt;&lt;br&gt;&lt;/div&gt;&lt;div&gt;&lt;br&gt;&lt;/div&gt;&amp;lt;&amp;lt;device&amp;gt;&amp;gt;&lt;div&gt;Firewall&lt;/div&gt;" style="verticalAlign=top;align=center;spacingTop=8;spacingLeft=2;spacingRight=12;shape=cube;size=10;direction=south;fontStyle=4;html=1;rounded=0;shadow=0;comic=0;labelBackgroundColor=none;strokeWidth=1;fontFamily=Verdana;fontSize=12" vertex="1" parent="WIyWlLk6GJQsqaUBKTNV-1">
          <mxGeometry x="415" y="130" width="175" height="110" as="geometry" />
        </mxCell>
        <mxCell id="JtgpF99zew84CIk5fjFb-15" value="" style="endArrow=none;html=1;rounded=0;fontSize=12;startSize=8;endSize=8;curved=1;entryX=0.003;entryY=0.736;entryDx=0;entryDy=0;entryPerimeter=0;exitX=0.989;exitY=0.393;exitDx=0;exitDy=0;exitPerimeter=0;" edge="1" parent="WIyWlLk6GJQsqaUBKTNV-1" source="JtgpF99zew84CIk5fjFb-14" target="JtgpF99zew84CIk5fjFb-17">
          <mxGeometry width="50" height="50" relative="1" as="geometry">
            <mxPoint x="526" y="240" as="sourcePoint" />
            <mxPoint x="684" y="280.9" as="targetPoint" />
          </mxGeometry>
        </mxCell>
        <mxCell id="JtgpF99zew84CIk5fjFb-24" value="" style="endArrow=none;html=1;rounded=0;fontSize=12;startSize=8;endSize=8;curved=1;entryX=0.68;entryY=0.996;entryDx=0;entryDy=0;entryPerimeter=0;" edge="1" parent="WIyWlLk6GJQsqaUBKTNV-1" target="JtgpF99zew84CIk5fjFb-17">
          <mxGeometry width="50" height="50" relative="1" as="geometry">
            <mxPoint x="340" y="500" as="sourcePoint" />
            <mxPoint x="420" y="500" as="targetPoint" />
          </mxGeometry>
        </mxCell>
        <mxCell id="JtgpF99zew84CIk5fjFb-33" value="«component»&lt;br&gt;&lt;b&gt;PHP&lt;/b&gt;" style="html=1;dropTarget=0;whiteSpace=wrap;" vertex="1" parent="WIyWlLk6GJQsqaUBKTNV-1">
          <mxGeometry x="482" y="510" width="220" height="50" as="geometry" />
        </mxCell>
        <mxCell id="JtgpF99zew84CIk5fjFb-34" value="" style="shape=module;jettyWidth=8;jettyHeight=4;" vertex="1" parent="JtgpF99zew84CIk5fjFb-33">
          <mxGeometry x="1" width="20" height="20" relative="1" as="geometry">
            <mxPoint x="-27" y="7" as="offset" />
          </mxGeometry>
        </mxCell>
      </root>
    </mxGraphModel>
  </diagram>
  <diagram name="套件圖" id="lEI9dVvbWSzG1wyAsRGO">
    <mxGraphModel grid="1" page="1" gridSize="10" guides="1" tooltips="1" connect="1" arrows="1" fold="1" pageScale="1" pageWidth="827" pageHeight="1169" math="0" shadow="0">
      <root>
        <mxCell id="Mau_UP82ot6dA8p3I-eF-0" />
        <mxCell id="Mau_UP82ot6dA8p3I-eF-1" parent="Mau_UP82ot6dA8p3I-eF-0" />
        <mxCell id="dsiBFXSh3bRJHmIRualH-1" value="" style="shape=folder;fontStyle=1;spacingTop=10;tabWidth=110;tabHeight=20;tabPosition=left;html=1;whiteSpace=wrap;" vertex="1" parent="Mau_UP82ot6dA8p3I-eF-1">
          <mxGeometry x="90" y="210" width="950" height="430" as="geometry" />
        </mxCell>
        <mxCell id="dsiBFXSh3bRJHmIRualH-2" value="&lt;span style=&quot;font-weight: normal;&quot;&gt;User&lt;/span&gt;&lt;div&gt;&lt;span style=&quot;font-weight: normal;&quot;&gt;&lt;br&gt;&lt;/span&gt;&lt;/div&gt;&lt;div&gt;&lt;span style=&quot;font-weight: normal;&quot;&gt;&lt;br&gt;&lt;/span&gt;&lt;/div&gt;&lt;div&gt;&lt;br&gt;&lt;/div&gt;&lt;div&gt;&lt;br&gt;&lt;/div&gt;&lt;div&gt;&lt;br&gt;&lt;/div&gt;" style="shape=folder;fontStyle=1;spacingTop=10;tabWidth=40;tabHeight=14;tabPosition=left;html=1;whiteSpace=wrap;" vertex="1" parent="Mau_UP82ot6dA8p3I-eF-1">
          <mxGeometry x="150" y="280" width="240" height="160" as="geometry" />
        </mxCell>
        <mxCell id="dsiBFXSh3bRJHmIRualH-3" value="&lt;span style=&quot;font-weight: normal;&quot;&gt;User&lt;/span&gt;" style="shape=folder;fontStyle=1;spacingTop=10;tabWidth=40;tabHeight=14;tabPosition=left;html=1;whiteSpace=wrap;" vertex="1" parent="Mau_UP82ot6dA8p3I-eF-1">
          <mxGeometry x="200" y="360" width="150" height="70" as="geometry" />
        </mxCell>
        <mxCell id="dsiBFXSh3bRJHmIRualH-4" value="&lt;span style=&quot;font-weight: 400;&quot;&gt;presentation layer&lt;/span&gt;&lt;br&gt;&lt;div&gt;&lt;span style=&quot;font-weight: normal;&quot;&gt;&lt;br&gt;&lt;/span&gt;&lt;/div&gt;&lt;div&gt;&lt;span style=&quot;font-weight: normal;&quot;&gt;&lt;br&gt;&lt;/span&gt;&lt;/div&gt;&lt;div&gt;&lt;br&gt;&lt;/div&gt;&lt;div&gt;&lt;br&gt;&lt;/div&gt;&lt;div&gt;&lt;br&gt;&lt;/div&gt;" style="shape=folder;fontStyle=1;spacingTop=10;tabWidth=40;tabHeight=14;tabPosition=left;html=1;whiteSpace=wrap;" vertex="1" parent="Mau_UP82ot6dA8p3I-eF-1">
          <mxGeometry x="450" y="280" width="240" height="160" as="geometry" />
        </mxCell>
        <mxCell id="dsiBFXSh3bRJHmIRualH-5" value="&lt;span style=&quot;font-weight: normal;&quot;&gt;User interface&lt;/span&gt;" style="shape=folder;fontStyle=1;spacingTop=10;tabWidth=40;tabHeight=14;tabPosition=left;html=1;whiteSpace=wrap;" vertex="1" parent="Mau_UP82ot6dA8p3I-eF-1">
          <mxGeometry x="500" y="360" width="150" height="70" as="geometry" />
        </mxCell>
        <mxCell id="dsiBFXSh3bRJHmIRualH-6" value="&lt;span style=&quot;font-weight: 400;&quot;&gt;Data Layer&lt;/span&gt;&lt;br&gt;&lt;div&gt;&lt;span style=&quot;font-weight: normal;&quot;&gt;&lt;br&gt;&lt;/span&gt;&lt;/div&gt;&lt;div&gt;&lt;span style=&quot;font-weight: normal;&quot;&gt;&lt;br&gt;&lt;/span&gt;&lt;/div&gt;&lt;div&gt;&lt;br&gt;&lt;/div&gt;&lt;div&gt;&lt;br&gt;&lt;/div&gt;&lt;div&gt;&lt;br&gt;&lt;/div&gt;" style="shape=folder;fontStyle=1;spacingTop=10;tabWidth=40;tabHeight=14;tabPosition=left;html=1;whiteSpace=wrap;" vertex="1" parent="Mau_UP82ot6dA8p3I-eF-1">
          <mxGeometry x="455" y="460" width="240" height="160" as="geometry" />
        </mxCell>
        <mxCell id="dsiBFXSh3bRJHmIRualH-7" value="&lt;span style=&quot;font-weight: normal;&quot;&gt;Data Access&lt;/span&gt;" style="shape=folder;fontStyle=1;spacingTop=10;tabWidth=40;tabHeight=14;tabPosition=left;html=1;whiteSpace=wrap;" vertex="1" parent="Mau_UP82ot6dA8p3I-eF-1">
          <mxGeometry x="505" y="540" width="150" height="70" as="geometry" />
        </mxCell>
        <mxCell id="dsiBFXSh3bRJHmIRualH-9" value="&lt;span style=&quot;font-weight: normal;&quot;&gt;Data Source&lt;/span&gt;" style="shape=folder;fontStyle=1;spacingTop=10;tabWidth=40;tabHeight=14;tabPosition=left;html=1;whiteSpace=wrap;" vertex="1" parent="Mau_UP82ot6dA8p3I-eF-1">
          <mxGeometry x="200" y="530" width="150" height="70" as="geometry" />
        </mxCell>
        <mxCell id="dsiBFXSh3bRJHmIRualH-10" value="" style="endArrow=open;endSize=12;dashed=1;html=1;rounded=0;" edge="1" parent="Mau_UP82ot6dA8p3I-eF-1">
          <mxGeometry width="160" relative="1" as="geometry">
            <mxPoint x="390" y="370" as="sourcePoint" />
            <mxPoint x="450" y="370" as="targetPoint" />
          </mxGeometry>
        </mxCell>
        <mxCell id="dsiBFXSh3bRJHmIRualH-11" value="&lt;span style=&quot;font-weight: 400;&quot;&gt;Service Layer&lt;/span&gt;&lt;br&gt;&lt;div&gt;&lt;span style=&quot;font-weight: normal;&quot;&gt;&lt;br&gt;&lt;/span&gt;&lt;/div&gt;&lt;div&gt;&lt;span style=&quot;font-weight: normal;&quot;&gt;&lt;br&gt;&lt;/span&gt;&lt;/div&gt;&lt;div&gt;&lt;br&gt;&lt;/div&gt;&lt;div&gt;&lt;br&gt;&lt;/div&gt;&lt;div&gt;&lt;br&gt;&lt;/div&gt;" style="shape=folder;fontStyle=1;spacingTop=10;tabWidth=40;tabHeight=14;tabPosition=left;html=1;whiteSpace=wrap;" vertex="1" parent="Mau_UP82ot6dA8p3I-eF-1">
          <mxGeometry x="750" y="280" width="240" height="160" as="geometry" />
        </mxCell>
        <mxCell id="dsiBFXSh3bRJHmIRualH-12" value="&lt;span style=&quot;font-weight: 400;&quot;&gt;Modal&lt;/span&gt;" style="shape=folder;fontStyle=1;spacingTop=10;tabWidth=40;tabHeight=14;tabPosition=left;html=1;whiteSpace=wrap;" vertex="1" parent="Mau_UP82ot6dA8p3I-eF-1">
          <mxGeometry x="800" y="360" width="150" height="70" as="geometry" />
        </mxCell>
        <mxCell id="dsiBFXSh3bRJHmIRualH-13" value="" style="endArrow=open;endSize=12;dashed=1;html=1;rounded=0;" edge="1" parent="Mau_UP82ot6dA8p3I-eF-1">
          <mxGeometry width="160" relative="1" as="geometry">
            <mxPoint x="690" y="370" as="sourcePoint" />
            <mxPoint x="750" y="370" as="targetPoint" />
          </mxGeometry>
        </mxCell>
        <mxCell id="dsiBFXSh3bRJHmIRualH-14" value="" style="endArrow=open;endSize=12;dashed=1;html=1;rounded=0;exitX=0.5;exitY=1;exitDx=0;exitDy=0;exitPerimeter=0;" edge="1" parent="Mau_UP82ot6dA8p3I-eF-1" source="dsiBFXSh3bRJHmIRualH-11">
          <mxGeometry width="160" relative="1" as="geometry">
            <mxPoint x="720" y="539" as="sourcePoint" />
            <mxPoint x="696" y="550" as="targetPoint" />
            <Array as="points">
              <mxPoint x="870" y="550" />
            </Array>
          </mxGeometry>
        </mxCell>
        <mxCell id="dsiBFXSh3bRJHmIRualH-15" value="" style="endArrow=open;endSize=12;dashed=1;html=1;rounded=0;entryX=1.007;entryY=0.422;entryDx=0;entryDy=0;entryPerimeter=0;" edge="1" parent="Mau_UP82ot6dA8p3I-eF-1" target="dsiBFXSh3bRJHmIRualH-9">
          <mxGeometry width="160" relative="1" as="geometry">
            <mxPoint x="455" y="560" as="sourcePoint" />
            <mxPoint x="355" y="558.0000000000002" as="targetPoint" />
          </mxGeometry>
        </mxCell>
        <mxCell id="dsiBFXSh3bRJHmIRualH-16" value="評星宇宙" style="text;html=1;align=center;verticalAlign=middle;resizable=0;points=[];autosize=1;strokeColor=none;fillColor=none;" vertex="1" parent="Mau_UP82ot6dA8p3I-eF-1">
          <mxGeometry x="530" y="240" width="70" height="30" as="geometry" />
        </mxCell>
      </root>
    </mxGraphModel>
  </diagram>
  <diagram name="元件圖" id="K_JbntC65Z2jVR1ERsR6">
    <mxGraphModel grid="1" page="1" gridSize="10" guides="1" tooltips="1" connect="1" arrows="1" fold="1" pageScale="1" pageWidth="827" pageHeight="1169" math="0" shadow="0">
      <root>
        <mxCell id="c2u8gQ8nUJPN4agrWA73-0" />
        <mxCell id="c2u8gQ8nUJPN4agrWA73-1" parent="c2u8gQ8nUJPN4agrWA73-0" />
        <mxCell id="_3ofn7URysI2PoVRVYJP-5" value="«Component»&lt;br&gt;&lt;br&gt;&lt;div&gt;主頁&lt;/div&gt;" style="html=1;dropTarget=0;whiteSpace=wrap;" vertex="1" parent="c2u8gQ8nUJPN4agrWA73-1">
          <mxGeometry x="520" y="180" width="180" height="60" as="geometry" />
        </mxCell>
        <mxCell id="_3ofn7URysI2PoVRVYJP-6" value="" style="shape=module;jettyWidth=8;jettyHeight=4;" vertex="1" parent="_3ofn7URysI2PoVRVYJP-5">
          <mxGeometry x="1" width="20" height="20" relative="1" as="geometry">
            <mxPoint x="-27" y="7" as="offset" />
          </mxGeometry>
        </mxCell>
        <mxCell id="_3ofn7URysI2PoVRVYJP-7" value="«Component»&lt;br&gt;&lt;br&gt;&lt;div&gt;登入&lt;/div&gt;" style="html=1;dropTarget=0;whiteSpace=wrap;" vertex="1" parent="c2u8gQ8nUJPN4agrWA73-1">
          <mxGeometry x="130" y="320" width="180" height="60" as="geometry" />
        </mxCell>
        <mxCell id="_3ofn7URysI2PoVRVYJP-8" value="" style="shape=module;jettyWidth=8;jettyHeight=4;" vertex="1" parent="_3ofn7URysI2PoVRVYJP-7">
          <mxGeometry x="1" width="20" height="20" relative="1" as="geometry">
            <mxPoint x="-27" y="7" as="offset" />
          </mxGeometry>
        </mxCell>
        <mxCell id="_3ofn7URysI2PoVRVYJP-9" value="«Component»&lt;br&gt;&lt;br&gt;&lt;div&gt;推薦商家&lt;/div&gt;" style="html=1;dropTarget=0;whiteSpace=wrap;" vertex="1" parent="c2u8gQ8nUJPN4agrWA73-1">
          <mxGeometry x="323" y="320" width="180" height="60" as="geometry" />
        </mxCell>
        <mxCell id="_3ofn7URysI2PoVRVYJP-10" value="" style="shape=module;jettyWidth=8;jettyHeight=4;" vertex="1" parent="_3ofn7URysI2PoVRVYJP-9">
          <mxGeometry x="1" width="20" height="20" relative="1" as="geometry">
            <mxPoint x="-27" y="7" as="offset" />
          </mxGeometry>
        </mxCell>
        <mxCell id="_3ofn7URysI2PoVRVYJP-11" value="«Component»&lt;br&gt;&lt;br&gt;&lt;div&gt;問題回饋&lt;/div&gt;" style="html=1;dropTarget=0;whiteSpace=wrap;" vertex="1" parent="c2u8gQ8nUJPN4agrWA73-1">
          <mxGeometry x="920" y="320" width="180" height="60" as="geometry" />
        </mxCell>
        <mxCell id="_3ofn7URysI2PoVRVYJP-12" value="" style="shape=module;jettyWidth=8;jettyHeight=4;" vertex="1" parent="_3ofn7URysI2PoVRVYJP-11">
          <mxGeometry x="1" width="20" height="20" relative="1" as="geometry">
            <mxPoint x="-27" y="7" as="offset" />
          </mxGeometry>
        </mxCell>
        <mxCell id="_3ofn7URysI2PoVRVYJP-13" value="«Component»&lt;br&gt;&lt;br&gt;&lt;div&gt;查詢商家&lt;/div&gt;" style="html=1;dropTarget=0;whiteSpace=wrap;" vertex="1" parent="c2u8gQ8nUJPN4agrWA73-1">
          <mxGeometry x="720" y="320" width="180" height="60" as="geometry" />
        </mxCell>
        <mxCell id="_3ofn7URysI2PoVRVYJP-14" value="" style="shape=module;jettyWidth=8;jettyHeight=4;" vertex="1" parent="_3ofn7URysI2PoVRVYJP-13">
          <mxGeometry x="1" width="20" height="20" relative="1" as="geometry">
            <mxPoint x="-27" y="7" as="offset" />
          </mxGeometry>
        </mxCell>
        <mxCell id="_3ofn7URysI2PoVRVYJP-15" value="" style="endArrow=none;html=1;rounded=0;entryX=0.5;entryY=1;entryDx=0;entryDy=0;" edge="1" parent="c2u8gQ8nUJPN4agrWA73-1" target="_3ofn7URysI2PoVRVYJP-9">
          <mxGeometry width="50" height="50" relative="1" as="geometry">
            <mxPoint x="413" y="410" as="sourcePoint" />
            <mxPoint x="610" y="440" as="targetPoint" />
          </mxGeometry>
        </mxCell>
        <mxCell id="_3ofn7URysI2PoVRVYJP-16" value="" style="ellipse;whiteSpace=wrap;html=1;aspect=fixed;" vertex="1" parent="c2u8gQ8nUJPN4agrWA73-1">
          <mxGeometry x="393" y="410" width="40" height="40" as="geometry" />
        </mxCell>
        <mxCell id="_3ofn7URysI2PoVRVYJP-17" value="推薦" style="text;html=1;align=center;verticalAlign=middle;resizable=0;points=[];autosize=1;strokeColor=none;fillColor=none;" vertex="1" parent="c2u8gQ8nUJPN4agrWA73-1">
          <mxGeometry x="388" y="460" width="50" height="30" as="geometry" />
        </mxCell>
        <mxCell id="_3ofn7URysI2PoVRVYJP-18" value="«Component»&lt;br&gt;&lt;br&gt;&lt;div&gt;使用說明&lt;/div&gt;" style="html=1;dropTarget=0;whiteSpace=wrap;" vertex="1" parent="c2u8gQ8nUJPN4agrWA73-1">
          <mxGeometry x="520" y="320" width="180" height="60" as="geometry" />
        </mxCell>
        <mxCell id="_3ofn7URysI2PoVRVYJP-19" value="" style="shape=module;jettyWidth=8;jettyHeight=4;" vertex="1" parent="_3ofn7URysI2PoVRVYJP-18">
          <mxGeometry x="1" width="20" height="20" relative="1" as="geometry">
            <mxPoint x="-27" y="7" as="offset" />
          </mxGeometry>
        </mxCell>
        <mxCell id="_3ofn7URysI2PoVRVYJP-20" value="" style="endArrow=none;html=1;rounded=0;entryX=0.5;entryY=1;entryDx=0;entryDy=0;" edge="1" parent="c2u8gQ8nUJPN4agrWA73-1">
          <mxGeometry width="50" height="50" relative="1" as="geometry">
            <mxPoint x="610" y="410" as="sourcePoint" />
            <mxPoint x="610" y="380" as="targetPoint" />
          </mxGeometry>
        </mxCell>
        <mxCell id="_3ofn7URysI2PoVRVYJP-21" value="" style="ellipse;whiteSpace=wrap;html=1;aspect=fixed;" vertex="1" parent="c2u8gQ8nUJPN4agrWA73-1">
          <mxGeometry x="590" y="410" width="40" height="40" as="geometry" />
        </mxCell>
        <mxCell id="_3ofn7URysI2PoVRVYJP-22" value="查看使用說明" style="text;html=1;align=center;verticalAlign=middle;resizable=0;points=[];autosize=1;strokeColor=none;fillColor=none;" vertex="1" parent="c2u8gQ8nUJPN4agrWA73-1">
          <mxGeometry x="560" y="460" width="100" height="30" as="geometry" />
        </mxCell>
        <mxCell id="_3ofn7URysI2PoVRVYJP-23" value="" style="endArrow=none;html=1;rounded=0;entryX=0.5;entryY=1;entryDx=0;entryDy=0;" edge="1" parent="c2u8gQ8nUJPN4agrWA73-1">
          <mxGeometry width="50" height="50" relative="1" as="geometry">
            <mxPoint x="1010" y="410" as="sourcePoint" />
            <mxPoint x="1010" y="380" as="targetPoint" />
          </mxGeometry>
        </mxCell>
        <mxCell id="_3ofn7URysI2PoVRVYJP-24" value="" style="ellipse;whiteSpace=wrap;html=1;aspect=fixed;" vertex="1" parent="c2u8gQ8nUJPN4agrWA73-1">
          <mxGeometry x="990" y="410" width="40" height="40" as="geometry" />
        </mxCell>
        <mxCell id="_3ofn7URysI2PoVRVYJP-25" value="輸入欲回報之問題" style="text;html=1;align=center;verticalAlign=middle;resizable=0;points=[];autosize=1;strokeColor=none;fillColor=none;" vertex="1" parent="c2u8gQ8nUJPN4agrWA73-1">
          <mxGeometry x="950" y="460" width="120" height="30" as="geometry" />
        </mxCell>
        <mxCell id="_3ofn7URysI2PoVRVYJP-26" value="" style="endArrow=none;html=1;rounded=0;entryX=0.5;entryY=1;entryDx=0;entryDy=0;" edge="1" parent="c2u8gQ8nUJPN4agrWA73-1" target="_3ofn7URysI2PoVRVYJP-13">
          <mxGeometry width="50" height="50" relative="1" as="geometry">
            <mxPoint x="810" y="480" as="sourcePoint" />
            <mxPoint x="780" y="310" as="targetPoint" />
          </mxGeometry>
        </mxCell>
        <mxCell id="_3ofn7URysI2PoVRVYJP-27" value="«Component»&lt;br&gt;&lt;br&gt;&lt;div&gt;商家詳細頁面&lt;/div&gt;" style="html=1;dropTarget=0;whiteSpace=wrap;" vertex="1" parent="c2u8gQ8nUJPN4agrWA73-1">
          <mxGeometry x="720" y="480" width="180" height="60" as="geometry" />
        </mxCell>
        <mxCell id="_3ofn7URysI2PoVRVYJP-28" value="" style="shape=module;jettyWidth=8;jettyHeight=4;" vertex="1" parent="_3ofn7URysI2PoVRVYJP-27">
          <mxGeometry x="1" width="20" height="20" relative="1" as="geometry">
            <mxPoint x="-27" y="7" as="offset" />
          </mxGeometry>
        </mxCell>
        <mxCell id="_3ofn7URysI2PoVRVYJP-29" value="«Component»&lt;br&gt;&lt;br&gt;&lt;div&gt;收藏商家&lt;/div&gt;" style="html=1;dropTarget=0;whiteSpace=wrap;" vertex="1" parent="c2u8gQ8nUJPN4agrWA73-1">
          <mxGeometry x="570" y="610" width="180" height="60" as="geometry" />
        </mxCell>
        <mxCell id="_3ofn7URysI2PoVRVYJP-30" value="" style="shape=module;jettyWidth=8;jettyHeight=4;" vertex="1" parent="_3ofn7URysI2PoVRVYJP-29">
          <mxGeometry x="1" width="20" height="20" relative="1" as="geometry">
            <mxPoint x="-27" y="7" as="offset" />
          </mxGeometry>
        </mxCell>
        <mxCell id="_3ofn7URysI2PoVRVYJP-31" value="«Component»&lt;br&gt;&lt;br&gt;&lt;div&gt;查看官網&lt;/div&gt;" style="html=1;dropTarget=0;whiteSpace=wrap;" vertex="1" parent="c2u8gQ8nUJPN4agrWA73-1">
          <mxGeometry x="890" y="610" width="180" height="60" as="geometry" />
        </mxCell>
        <mxCell id="_3ofn7URysI2PoVRVYJP-32" value="" style="shape=module;jettyWidth=8;jettyHeight=4;" vertex="1" parent="_3ofn7URysI2PoVRVYJP-31">
          <mxGeometry x="1" width="20" height="20" relative="1" as="geometry">
            <mxPoint x="-27" y="7" as="offset" />
          </mxGeometry>
        </mxCell>
        <mxCell id="_3ofn7URysI2PoVRVYJP-33" value="" style="endArrow=open;endSize=12;dashed=1;html=1;rounded=0;exitX=0.25;exitY=1;exitDx=0;exitDy=0;entryX=0.614;entryY=0.003;entryDx=0;entryDy=0;entryPerimeter=0;" edge="1" parent="c2u8gQ8nUJPN4agrWA73-1" source="_3ofn7URysI2PoVRVYJP-27" target="_3ofn7URysI2PoVRVYJP-29">
          <mxGeometry width="160" relative="1" as="geometry">
            <mxPoint x="710" y="740" as="sourcePoint" />
            <mxPoint x="870" y="740" as="targetPoint" />
          </mxGeometry>
        </mxCell>
        <mxCell id="_3ofn7URysI2PoVRVYJP-38" value="" style="endArrow=open;endSize=12;dashed=1;html=1;rounded=0;exitX=0.75;exitY=1;exitDx=0;exitDy=0;entryX=0.25;entryY=0;entryDx=0;entryDy=0;" edge="1" parent="c2u8gQ8nUJPN4agrWA73-1" source="_3ofn7URysI2PoVRVYJP-27" target="_3ofn7URysI2PoVRVYJP-31">
          <mxGeometry width="160" relative="1" as="geometry">
            <mxPoint x="775" y="550" as="sourcePoint" />
            <mxPoint x="691" y="620" as="targetPoint" />
          </mxGeometry>
        </mxCell>
        <mxCell id="_3ofn7URysI2PoVRVYJP-39" value="" style="endArrow=none;html=1;rounded=0;entryX=0.5;entryY=1;entryDx=0;entryDy=0;" edge="1" parent="c2u8gQ8nUJPN4agrWA73-1">
          <mxGeometry width="50" height="50" relative="1" as="geometry">
            <mxPoint x="660" y="700" as="sourcePoint" />
            <mxPoint x="660" y="670" as="targetPoint" />
          </mxGeometry>
        </mxCell>
        <mxCell id="_3ofn7URysI2PoVRVYJP-40" value="" style="ellipse;whiteSpace=wrap;html=1;aspect=fixed;" vertex="1" parent="c2u8gQ8nUJPN4agrWA73-1">
          <mxGeometry x="640" y="700" width="40" height="40" as="geometry" />
        </mxCell>
        <mxCell id="_3ofn7URysI2PoVRVYJP-41" value="新增收藏商家" style="text;html=1;align=center;verticalAlign=middle;resizable=0;points=[];autosize=1;strokeColor=none;fillColor=none;" vertex="1" parent="c2u8gQ8nUJPN4agrWA73-1">
          <mxGeometry x="610" y="750" width="100" height="30" as="geometry" />
        </mxCell>
        <mxCell id="_3ofn7URysI2PoVRVYJP-42" value="" style="endArrow=none;html=1;rounded=0;entryX=0.5;entryY=1;entryDx=0;entryDy=0;" edge="1" parent="c2u8gQ8nUJPN4agrWA73-1">
          <mxGeometry width="50" height="50" relative="1" as="geometry">
            <mxPoint x="990" y="700" as="sourcePoint" />
            <mxPoint x="990" y="670" as="targetPoint" />
          </mxGeometry>
        </mxCell>
        <mxCell id="_3ofn7URysI2PoVRVYJP-43" value="" style="ellipse;whiteSpace=wrap;html=1;aspect=fixed;" vertex="1" parent="c2u8gQ8nUJPN4agrWA73-1">
          <mxGeometry x="970" y="700" width="40" height="40" as="geometry" />
        </mxCell>
        <mxCell id="_3ofn7URysI2PoVRVYJP-44" value="官網資訊" style="text;html=1;align=center;verticalAlign=middle;resizable=0;points=[];autosize=1;strokeColor=none;fillColor=none;" vertex="1" parent="c2u8gQ8nUJPN4agrWA73-1">
          <mxGeometry x="955" y="750" width="70" height="30" as="geometry" />
        </mxCell>
        <mxCell id="_3ofn7URysI2PoVRVYJP-45" value="" style="endArrow=none;html=1;rounded=0;exitX=0.5;exitY=0;exitDx=0;exitDy=0;" edge="1" parent="c2u8gQ8nUJPN4agrWA73-1" source="_3ofn7URysI2PoVRVYJP-7">
          <mxGeometry width="50" height="50" relative="1" as="geometry">
            <mxPoint x="820" y="490" as="sourcePoint" />
            <mxPoint x="530" y="240" as="targetPoint" />
          </mxGeometry>
        </mxCell>
        <mxCell id="_3ofn7URysI2PoVRVYJP-46" value="" style="endArrow=none;html=1;rounded=0;entryX=0.25;entryY=1;entryDx=0;entryDy=0;exitX=0.5;exitY=0;exitDx=0;exitDy=0;" edge="1" parent="c2u8gQ8nUJPN4agrWA73-1" source="_3ofn7URysI2PoVRVYJP-9" target="_3ofn7URysI2PoVRVYJP-5">
          <mxGeometry width="50" height="50" relative="1" as="geometry">
            <mxPoint x="830" y="500" as="sourcePoint" />
            <mxPoint x="830" y="400" as="targetPoint" />
          </mxGeometry>
        </mxCell>
        <mxCell id="_3ofn7URysI2PoVRVYJP-47" value="" style="endArrow=none;html=1;rounded=0;entryX=0.5;entryY=1;entryDx=0;entryDy=0;exitX=0.5;exitY=0;exitDx=0;exitDy=0;" edge="1" parent="c2u8gQ8nUJPN4agrWA73-1" source="_3ofn7URysI2PoVRVYJP-18" target="_3ofn7URysI2PoVRVYJP-5">
          <mxGeometry width="50" height="50" relative="1" as="geometry">
            <mxPoint x="840" y="510" as="sourcePoint" />
            <mxPoint x="840" y="410" as="targetPoint" />
          </mxGeometry>
        </mxCell>
        <mxCell id="_3ofn7URysI2PoVRVYJP-48" value="" style="endArrow=none;html=1;rounded=0;entryX=0.75;entryY=1;entryDx=0;entryDy=0;exitX=0.5;exitY=0;exitDx=0;exitDy=0;" edge="1" parent="c2u8gQ8nUJPN4agrWA73-1" source="_3ofn7URysI2PoVRVYJP-13" target="_3ofn7URysI2PoVRVYJP-5">
          <mxGeometry width="50" height="50" relative="1" as="geometry">
            <mxPoint x="850" y="520" as="sourcePoint" />
            <mxPoint x="850" y="420" as="targetPoint" />
          </mxGeometry>
        </mxCell>
        <mxCell id="_3ofn7URysI2PoVRVYJP-49" value="" style="endArrow=none;html=1;rounded=0;entryX=0.934;entryY=1.005;entryDx=0;entryDy=0;exitX=0.5;exitY=0;exitDx=0;exitDy=0;entryPerimeter=0;" edge="1" parent="c2u8gQ8nUJPN4agrWA73-1" source="_3ofn7URysI2PoVRVYJP-11" target="_3ofn7URysI2PoVRVYJP-5">
          <mxGeometry width="50" height="50" relative="1" as="geometry">
            <mxPoint x="860" y="530" as="sourcePoint" />
            <mxPoint x="860" y="430" as="targetPoint" />
          </mxGeometry>
        </mxCell>
        <mxCell id="_3ofn7URysI2PoVRVYJP-50" value="" style="endArrow=none;html=1;rounded=0;entryX=0.5;entryY=1;entryDx=0;entryDy=0;" edge="1" parent="c2u8gQ8nUJPN4agrWA73-1" target="_3ofn7URysI2PoVRVYJP-7">
          <mxGeometry width="50" height="50" relative="1" as="geometry">
            <mxPoint x="220" y="480" as="sourcePoint" />
            <mxPoint x="340" y="440" as="targetPoint" />
          </mxGeometry>
        </mxCell>
        <mxCell id="_3ofn7URysI2PoVRVYJP-51" value="«Component»&lt;br&gt;&lt;br&gt;&lt;div&gt;會員專區&lt;/div&gt;" style="html=1;dropTarget=0;whiteSpace=wrap;" vertex="1" parent="c2u8gQ8nUJPN4agrWA73-1">
          <mxGeometry x="130" y="480" width="180" height="60" as="geometry" />
        </mxCell>
        <mxCell id="_3ofn7URysI2PoVRVYJP-52" value="" style="shape=module;jettyWidth=8;jettyHeight=4;" vertex="1" parent="_3ofn7URysI2PoVRVYJP-51">
          <mxGeometry x="1" width="20" height="20" relative="1" as="geometry">
            <mxPoint x="-27" y="7" as="offset" />
          </mxGeometry>
        </mxCell>
        <mxCell id="_3ofn7URysI2PoVRVYJP-53" value="«Component»&lt;br&gt;&lt;br&gt;&lt;div&gt;基本資料&lt;/div&gt;" style="html=1;dropTarget=0;whiteSpace=wrap;" vertex="1" parent="c2u8gQ8nUJPN4agrWA73-1">
          <mxGeometry x="-20" y="610" width="180" height="60" as="geometry" />
        </mxCell>
        <mxCell id="_3ofn7URysI2PoVRVYJP-54" value="" style="shape=module;jettyWidth=8;jettyHeight=4;" vertex="1" parent="_3ofn7URysI2PoVRVYJP-53">
          <mxGeometry x="1" width="20" height="20" relative="1" as="geometry">
            <mxPoint x="-27" y="7" as="offset" />
          </mxGeometry>
        </mxCell>
        <mxCell id="_3ofn7URysI2PoVRVYJP-55" value="«Component»&lt;br&gt;&lt;br&gt;&lt;div&gt;偏好設定&lt;/div&gt;" style="html=1;dropTarget=0;whiteSpace=wrap;" vertex="1" parent="c2u8gQ8nUJPN4agrWA73-1">
          <mxGeometry x="300" y="610" width="180" height="60" as="geometry" />
        </mxCell>
        <mxCell id="_3ofn7URysI2PoVRVYJP-56" value="" style="shape=module;jettyWidth=8;jettyHeight=4;" vertex="1" parent="_3ofn7URysI2PoVRVYJP-55">
          <mxGeometry x="1" width="20" height="20" relative="1" as="geometry">
            <mxPoint x="-27" y="7" as="offset" />
          </mxGeometry>
        </mxCell>
        <mxCell id="_3ofn7URysI2PoVRVYJP-57" value="" style="endArrow=open;endSize=12;dashed=1;html=1;rounded=0;exitX=0.25;exitY=1;exitDx=0;exitDy=0;entryX=0.614;entryY=0.003;entryDx=0;entryDy=0;entryPerimeter=0;" edge="1" parent="c2u8gQ8nUJPN4agrWA73-1" source="_3ofn7URysI2PoVRVYJP-51" target="_3ofn7URysI2PoVRVYJP-53">
          <mxGeometry width="160" relative="1" as="geometry">
            <mxPoint x="120" y="740" as="sourcePoint" />
            <mxPoint x="280" y="740" as="targetPoint" />
          </mxGeometry>
        </mxCell>
        <mxCell id="_3ofn7URysI2PoVRVYJP-58" value="" style="endArrow=open;endSize=12;dashed=1;html=1;rounded=0;exitX=0.75;exitY=1;exitDx=0;exitDy=0;entryX=0.25;entryY=0;entryDx=0;entryDy=0;" edge="1" parent="c2u8gQ8nUJPN4agrWA73-1" source="_3ofn7URysI2PoVRVYJP-51" target="_3ofn7URysI2PoVRVYJP-55">
          <mxGeometry width="160" relative="1" as="geometry">
            <mxPoint x="185" y="550" as="sourcePoint" />
            <mxPoint x="101" y="620" as="targetPoint" />
          </mxGeometry>
        </mxCell>
        <mxCell id="_3ofn7URysI2PoVRVYJP-59" value="" style="endArrow=none;html=1;rounded=0;entryX=0.5;entryY=1;entryDx=0;entryDy=0;" edge="1" parent="c2u8gQ8nUJPN4agrWA73-1">
          <mxGeometry width="50" height="50" relative="1" as="geometry">
            <mxPoint x="70" y="700" as="sourcePoint" />
            <mxPoint x="70" y="670" as="targetPoint" />
          </mxGeometry>
        </mxCell>
        <mxCell id="_3ofn7URysI2PoVRVYJP-60" value="" style="ellipse;whiteSpace=wrap;html=1;aspect=fixed;" vertex="1" parent="c2u8gQ8nUJPN4agrWA73-1">
          <mxGeometry x="50" y="700" width="40" height="40" as="geometry" />
        </mxCell>
        <mxCell id="_3ofn7URysI2PoVRVYJP-62" value="" style="endArrow=none;html=1;rounded=0;entryX=0.5;entryY=1;entryDx=0;entryDy=0;" edge="1" parent="c2u8gQ8nUJPN4agrWA73-1">
          <mxGeometry width="50" height="50" relative="1" as="geometry">
            <mxPoint x="400" y="700" as="sourcePoint" />
            <mxPoint x="400" y="670" as="targetPoint" />
          </mxGeometry>
        </mxCell>
        <mxCell id="_3ofn7URysI2PoVRVYJP-63" value="" style="ellipse;whiteSpace=wrap;html=1;aspect=fixed;" vertex="1" parent="c2u8gQ8nUJPN4agrWA73-1">
          <mxGeometry x="380" y="700" width="40" height="40" as="geometry" />
        </mxCell>
        <mxCell id="_3ofn7URysI2PoVRVYJP-64" value="查看偏好設定" style="text;html=1;align=center;verticalAlign=middle;resizable=0;points=[];autosize=1;strokeColor=none;fillColor=none;" vertex="1" parent="c2u8gQ8nUJPN4agrWA73-1">
          <mxGeometry x="350" y="750" width="100" height="30" as="geometry" />
        </mxCell>
        <mxCell id="_3ofn7URysI2PoVRVYJP-65" value="«Component»&lt;br&gt;&lt;br&gt;&lt;div&gt;權重設定&lt;/div&gt;" style="html=1;dropTarget=0;whiteSpace=wrap;" vertex="1" parent="c2u8gQ8nUJPN4agrWA73-1">
          <mxGeometry x="30" y="800" width="180" height="60" as="geometry" />
        </mxCell>
        <mxCell id="_3ofn7URysI2PoVRVYJP-66" value="" style="shape=module;jettyWidth=8;jettyHeight=4;" vertex="1" parent="_3ofn7URysI2PoVRVYJP-65">
          <mxGeometry x="1" width="20" height="20" relative="1" as="geometry">
            <mxPoint x="-27" y="7" as="offset" />
          </mxGeometry>
        </mxCell>
        <mxCell id="_3ofn7URysI2PoVRVYJP-67" value="" style="endArrow=none;html=1;rounded=0;entryX=0.5;entryY=1;entryDx=0;entryDy=0;" edge="1" parent="c2u8gQ8nUJPN4agrWA73-1">
          <mxGeometry width="50" height="50" relative="1" as="geometry">
            <mxPoint x="130" y="890" as="sourcePoint" />
            <mxPoint x="130" y="860" as="targetPoint" />
          </mxGeometry>
        </mxCell>
        <mxCell id="_3ofn7URysI2PoVRVYJP-68" value="" style="ellipse;whiteSpace=wrap;html=1;aspect=fixed;" vertex="1" parent="c2u8gQ8nUJPN4agrWA73-1">
          <mxGeometry x="110" y="890" width="40" height="40" as="geometry" />
        </mxCell>
        <mxCell id="_3ofn7URysI2PoVRVYJP-69" value="查看權重設定" style="text;html=1;align=center;verticalAlign=middle;resizable=0;points=[];autosize=1;strokeColor=none;fillColor=none;" vertex="1" parent="c2u8gQ8nUJPN4agrWA73-1">
          <mxGeometry x="80" y="940" width="100" height="30" as="geometry" />
        </mxCell>
        <mxCell id="_3ofn7URysI2PoVRVYJP-70" value="«Component»&lt;br&gt;&lt;br&gt;&lt;div&gt;查看收藏商家&lt;/div&gt;" style="html=1;dropTarget=0;whiteSpace=wrap;" vertex="1" parent="c2u8gQ8nUJPN4agrWA73-1">
          <mxGeometry x="230" y="800" width="180" height="60" as="geometry" />
        </mxCell>
        <mxCell id="_3ofn7URysI2PoVRVYJP-71" value="" style="shape=module;jettyWidth=8;jettyHeight=4;" vertex="1" parent="_3ofn7URysI2PoVRVYJP-70">
          <mxGeometry x="1" width="20" height="20" relative="1" as="geometry">
            <mxPoint x="-27" y="7" as="offset" />
          </mxGeometry>
        </mxCell>
        <mxCell id="_3ofn7URysI2PoVRVYJP-72" value="" style="endArrow=none;html=1;rounded=0;entryX=0.5;entryY=1;entryDx=0;entryDy=0;" edge="1" parent="c2u8gQ8nUJPN4agrWA73-1">
          <mxGeometry width="50" height="50" relative="1" as="geometry">
            <mxPoint x="330" y="890" as="sourcePoint" />
            <mxPoint x="330" y="860" as="targetPoint" />
          </mxGeometry>
        </mxCell>
        <mxCell id="_3ofn7URysI2PoVRVYJP-73" value="" style="ellipse;whiteSpace=wrap;html=1;aspect=fixed;" vertex="1" parent="c2u8gQ8nUJPN4agrWA73-1">
          <mxGeometry x="310" y="890" width="40" height="40" as="geometry" />
        </mxCell>
        <mxCell id="_3ofn7URysI2PoVRVYJP-74" value="查看收藏商家" style="text;html=1;align=center;verticalAlign=middle;resizable=0;points=[];autosize=1;strokeColor=none;fillColor=none;" vertex="1" parent="c2u8gQ8nUJPN4agrWA73-1">
          <mxGeometry x="280" y="940" width="100" height="30" as="geometry" />
        </mxCell>
        <mxCell id="_3ofn7URysI2PoVRVYJP-75" value="查看基本資料" style="text;html=1;align=center;verticalAlign=middle;resizable=0;points=[];autosize=1;strokeColor=none;fillColor=none;" vertex="1" parent="c2u8gQ8nUJPN4agrWA73-1">
          <mxGeometry x="20" y="750" width="100" height="30" as="geometry" />
        </mxCell>
        <mxCell id="_3ofn7URysI2PoVRVYJP-76" value="" style="endArrow=open;endSize=12;dashed=1;html=1;rounded=0;exitX=0.382;exitY=0.999;exitDx=0;exitDy=0;entryX=0.852;entryY=-0.027;entryDx=0;entryDy=0;entryPerimeter=0;exitPerimeter=0;" edge="1" parent="c2u8gQ8nUJPN4agrWA73-1" source="_3ofn7URysI2PoVRVYJP-51" target="_3ofn7URysI2PoVRVYJP-65">
          <mxGeometry width="160" relative="1" as="geometry">
            <mxPoint x="185" y="550" as="sourcePoint" />
            <mxPoint x="101" y="620" as="targetPoint" />
          </mxGeometry>
        </mxCell>
        <mxCell id="_3ofn7URysI2PoVRVYJP-77" value="" style="endArrow=open;endSize=12;dashed=1;html=1;rounded=0;exitX=0.6;exitY=0.999;exitDx=0;exitDy=0;entryX=0.25;entryY=0;entryDx=0;entryDy=0;exitPerimeter=0;" edge="1" parent="c2u8gQ8nUJPN4agrWA73-1" source="_3ofn7URysI2PoVRVYJP-51" target="_3ofn7URysI2PoVRVYJP-70">
          <mxGeometry width="160" relative="1" as="geometry">
            <mxPoint x="195" y="560" as="sourcePoint" />
            <mxPoint x="111" y="630" as="targetPoint" />
          </mxGeometry>
        </mxCell>
      </root>
    </mxGraphModel>
  </diagram>
  <diagram name="狀態機-會員登入" id="2Fqh_lMVmFb-MjldWHY_">
    <mxGraphModel grid="1" page="1" gridSize="10" guides="1" tooltips="1" connect="1" arrows="1" fold="1" pageScale="1" pageWidth="827" pageHeight="1169" math="0" shadow="0">
      <root>
        <mxCell id="QPB63ByAo_tz4oJxPM3o-0" />
        <mxCell id="QPB63ByAo_tz4oJxPM3o-1" parent="QPB63ByAo_tz4oJxPM3o-0" />
        <mxCell id="EMTmmOVKHAkTufm51TqJ-0" value="" style="ellipse;fillColor=strokeColor;html=1;" vertex="1" parent="QPB63ByAo_tz4oJxPM3o-1">
          <mxGeometry x="404.17" y="162" width="30" height="30" as="geometry" />
        </mxCell>
        <mxCell id="EMTmmOVKHAkTufm51TqJ-1" value="" style="endArrow=classic;html=1;rounded=0;exitX=0.5;exitY=1;exitDx=0;exitDy=0;" edge="1" parent="QPB63ByAo_tz4oJxPM3o-1" source="EMTmmOVKHAkTufm51TqJ-0">
          <mxGeometry width="50" height="50" relative="1" as="geometry">
            <mxPoint x="396.17" y="452" as="sourcePoint" />
            <mxPoint x="419.17" y="242" as="targetPoint" />
          </mxGeometry>
        </mxCell>
        <mxCell id="EMTmmOVKHAkTufm51TqJ-2" value="未登入" style="html=1;align=center;verticalAlign=top;rounded=1;absoluteArcSize=1;arcSize=10;dashed=0;whiteSpace=wrap;" vertex="1" parent="QPB63ByAo_tz4oJxPM3o-1">
          <mxGeometry x="349.17" y="242" width="140" height="40" as="geometry" />
        </mxCell>
        <mxCell id="EMTmmOVKHAkTufm51TqJ-3" value="驗證信箱" style="html=1;align=center;verticalAlign=top;rounded=1;absoluteArcSize=1;arcSize=10;dashed=0;whiteSpace=wrap;" vertex="1" parent="QPB63ByAo_tz4oJxPM3o-1">
          <mxGeometry x="580.17" y="242" width="140" height="40" as="geometry" />
        </mxCell>
        <mxCell id="EMTmmOVKHAkTufm51TqJ-4" value="驗證註冊信箱" style="html=1;align=center;verticalAlign=top;rounded=1;absoluteArcSize=1;arcSize=10;dashed=0;whiteSpace=wrap;" vertex="1" parent="QPB63ByAo_tz4oJxPM3o-1">
          <mxGeometry x="108.61" y="242" width="140" height="40" as="geometry" />
        </mxCell>
        <mxCell id="EMTmmOVKHAkTufm51TqJ-5" value="" style="endArrow=classic;html=1;rounded=0;entryX=0;entryY=0.25;entryDx=0;entryDy=0;" edge="1" parent="QPB63ByAo_tz4oJxPM3o-1">
          <mxGeometry relative="1" as="geometry">
            <mxPoint x="489.17" y="261.8" as="sourcePoint" />
            <mxPoint x="580.17" y="261.8" as="targetPoint" />
          </mxGeometry>
        </mxCell>
        <mxCell id="EMTmmOVKHAkTufm51TqJ-6" value="註冊" style="edgeLabel;resizable=0;html=1;;align=center;verticalAlign=middle;" connectable="0" vertex="1" parent="EMTmmOVKHAkTufm51TqJ-5">
          <mxGeometry relative="1" as="geometry" />
        </mxCell>
        <mxCell id="EMTmmOVKHAkTufm51TqJ-7" value="" style="endArrow=classic;html=1;rounded=0;entryX=0.5;entryY=1;entryDx=0;entryDy=0;exitX=0.5;exitY=0;exitDx=0;exitDy=0;" edge="1" parent="QPB63ByAo_tz4oJxPM3o-1">
          <mxGeometry relative="1" as="geometry">
            <mxPoint x="686.17" y="242" as="sourcePoint" />
            <mxPoint x="686.17" y="202" as="targetPoint" />
          </mxGeometry>
        </mxCell>
        <mxCell id="EMTmmOVKHAkTufm51TqJ-8" value="[驗證失敗]" style="edgeLabel;resizable=0;html=1;;align=center;verticalAlign=middle;" connectable="0" vertex="1" parent="EMTmmOVKHAkTufm51TqJ-7">
          <mxGeometry relative="1" as="geometry" />
        </mxCell>
        <mxCell id="EMTmmOVKHAkTufm51TqJ-10" value="" style="endArrow=classic;html=1;rounded=0;exitX=0;exitY=0.25;exitDx=0;exitDy=0;entryX=1;entryY=0.5;entryDx=0;entryDy=0;" edge="1" parent="QPB63ByAo_tz4oJxPM3o-1" target="EMTmmOVKHAkTufm51TqJ-4">
          <mxGeometry relative="1" as="geometry">
            <mxPoint x="349.17" y="261.8" as="sourcePoint" />
            <mxPoint x="250" y="262" as="targetPoint" />
          </mxGeometry>
        </mxCell>
        <mxCell id="EMTmmOVKHAkTufm51TqJ-11" value="忘記密碼" style="edgeLabel;resizable=0;html=1;;align=center;verticalAlign=middle;" connectable="0" vertex="1" parent="EMTmmOVKHAkTufm51TqJ-10">
          <mxGeometry relative="1" as="geometry" />
        </mxCell>
        <mxCell id="EMTmmOVKHAkTufm51TqJ-14" value="修改密碼" style="html=1;align=center;verticalAlign=top;rounded=1;absoluteArcSize=1;arcSize=10;dashed=0;whiteSpace=wrap;" vertex="1" parent="QPB63ByAo_tz4oJxPM3o-1">
          <mxGeometry x="108.61" y="342" width="140" height="40" as="geometry" />
        </mxCell>
        <mxCell id="EMTmmOVKHAkTufm51TqJ-15" value="" style="endArrow=classic;html=1;rounded=0;entryX=0.36;entryY=0.008;entryDx=0;entryDy=0;exitX=0.343;exitY=1.041;exitDx=0;exitDy=0;entryPerimeter=0;exitPerimeter=0;" edge="1" parent="QPB63ByAo_tz4oJxPM3o-1">
          <mxGeometry relative="1" as="geometry">
            <mxPoint x="178.36999999999998" y="282" as="sourcePoint" />
            <mxPoint x="178.77" y="342.32000000000005" as="targetPoint" />
          </mxGeometry>
        </mxCell>
        <mxCell id="EMTmmOVKHAkTufm51TqJ-16" value="[驗證成功]" style="edgeLabel;resizable=0;html=1;;align=center;verticalAlign=middle;" connectable="0" vertex="1" parent="EMTmmOVKHAkTufm51TqJ-15">
          <mxGeometry relative="1" as="geometry" />
        </mxCell>
        <mxCell id="EMTmmOVKHAkTufm51TqJ-17" value="帳號註冊成功" style="html=1;align=center;verticalAlign=top;rounded=1;absoluteArcSize=1;arcSize=10;dashed=0;whiteSpace=wrap;" vertex="1" parent="QPB63ByAo_tz4oJxPM3o-1">
          <mxGeometry x="580.17" y="342" width="140" height="40" as="geometry" />
        </mxCell>
        <mxCell id="EMTmmOVKHAkTufm51TqJ-18" value="" style="endArrow=classic;html=1;rounded=0;entryX=0.36;entryY=0.008;entryDx=0;entryDy=0;exitX=0.343;exitY=1.041;exitDx=0;exitDy=0;entryPerimeter=0;exitPerimeter=0;" edge="1" parent="QPB63ByAo_tz4oJxPM3o-1">
          <mxGeometry relative="1" as="geometry">
            <mxPoint x="649.93" y="282" as="sourcePoint" />
            <mxPoint x="650.33" y="342.32000000000005" as="targetPoint" />
          </mxGeometry>
        </mxCell>
        <mxCell id="EMTmmOVKHAkTufm51TqJ-19" value="[驗證成功]" style="edgeLabel;resizable=0;html=1;;align=center;verticalAlign=middle;" connectable="0" vertex="1" parent="EMTmmOVKHAkTufm51TqJ-18">
          <mxGeometry relative="1" as="geometry" />
        </mxCell>
        <mxCell id="EMTmmOVKHAkTufm51TqJ-20" value="驗證帳號密碼" style="html=1;align=center;verticalAlign=top;rounded=1;absoluteArcSize=1;arcSize=10;dashed=0;whiteSpace=wrap;" vertex="1" parent="QPB63ByAo_tz4oJxPM3o-1">
          <mxGeometry x="349.17" y="342" width="140" height="40" as="geometry" />
        </mxCell>
        <mxCell id="EMTmmOVKHAkTufm51TqJ-21" value="" style="endArrow=classic;html=1;rounded=0;entryX=0.329;entryY=-0.01;entryDx=0;entryDy=0;entryPerimeter=0;" edge="1" parent="QPB63ByAo_tz4oJxPM3o-1" target="EMTmmOVKHAkTufm51TqJ-20">
          <mxGeometry relative="1" as="geometry">
            <mxPoint x="395.17" y="282" as="sourcePoint" />
            <mxPoint x="603.17" y="352" as="targetPoint" />
          </mxGeometry>
        </mxCell>
        <mxCell id="EMTmmOVKHAkTufm51TqJ-22" value="登入" style="edgeLabel;resizable=0;html=1;;align=center;verticalAlign=middle;" connectable="0" vertex="1" parent="EMTmmOVKHAkTufm51TqJ-21">
          <mxGeometry relative="1" as="geometry" />
        </mxCell>
        <mxCell id="EMTmmOVKHAkTufm51TqJ-23" value="" style="endArrow=classic;html=1;rounded=0;entryX=0.6;entryY=1.024;entryDx=0;entryDy=0;entryPerimeter=0;" edge="1" parent="QPB63ByAo_tz4oJxPM3o-1">
          <mxGeometry relative="1" as="geometry">
            <mxPoint x="446.17" y="342" as="sourcePoint" />
            <mxPoint x="446.17" y="282.00000000000006" as="targetPoint" />
          </mxGeometry>
        </mxCell>
        <mxCell id="EMTmmOVKHAkTufm51TqJ-24" value="[驗證失敗]" style="edgeLabel;resizable=0;html=1;;align=center;verticalAlign=middle;" connectable="0" vertex="1" parent="EMTmmOVKHAkTufm51TqJ-23">
          <mxGeometry relative="1" as="geometry" />
        </mxCell>
        <mxCell id="EMTmmOVKHAkTufm51TqJ-25" value="登入" style="html=1;align=center;verticalAlign=top;rounded=1;absoluteArcSize=1;arcSize=10;dashed=0;whiteSpace=wrap;" vertex="1" parent="QPB63ByAo_tz4oJxPM3o-1">
          <mxGeometry x="350.17" y="442" width="140" height="40" as="geometry" />
        </mxCell>
        <mxCell id="EMTmmOVKHAkTufm51TqJ-26" value="" style="endArrow=classic;html=1;rounded=0;entryX=0.329;entryY=-0.01;entryDx=0;entryDy=0;entryPerimeter=0;" edge="1" parent="QPB63ByAo_tz4oJxPM3o-1">
          <mxGeometry relative="1" as="geometry">
            <mxPoint x="419.17" y="382" as="sourcePoint" />
            <mxPoint x="419.2300000000001" y="441.6" as="targetPoint" />
          </mxGeometry>
        </mxCell>
        <mxCell id="EMTmmOVKHAkTufm51TqJ-27" value="[驗證成功]" style="edgeLabel;resizable=0;html=1;;align=center;verticalAlign=middle;" connectable="0" vertex="1" parent="EMTmmOVKHAkTufm51TqJ-26">
          <mxGeometry relative="1" as="geometry" />
        </mxCell>
        <mxCell id="EMTmmOVKHAkTufm51TqJ-29" value="" style="endArrow=classic;html=1;rounded=0;exitX=0.5;exitY=1;exitDx=0;exitDy=0;" edge="1" parent="QPB63ByAo_tz4oJxPM3o-1" source="EMTmmOVKHAkTufm51TqJ-25" target="EMTmmOVKHAkTufm51TqJ-30">
          <mxGeometry width="50" height="50" relative="1" as="geometry">
            <mxPoint x="416.17" y="492" as="sourcePoint" />
            <mxPoint x="420.17" y="522" as="targetPoint" />
          </mxGeometry>
        </mxCell>
        <mxCell id="EMTmmOVKHAkTufm51TqJ-30" value="" style="ellipse;html=1;shape=endState;fillColor=strokeColor;" vertex="1" parent="QPB63ByAo_tz4oJxPM3o-1">
          <mxGeometry x="405.17" y="512" width="30" height="30" as="geometry" />
        </mxCell>
        <mxCell id="EMTmmOVKHAkTufm51TqJ-31" value="" style="endArrow=classic;html=1;rounded=0;entryX=0.005;entryY=0.457;entryDx=0;entryDy=0;entryPerimeter=0;" edge="1" parent="QPB63ByAo_tz4oJxPM3o-1" target="EMTmmOVKHAkTufm51TqJ-20">
          <mxGeometry relative="1" as="geometry">
            <mxPoint x="250" y="360" as="sourcePoint" />
            <mxPoint x="349.17" y="361.5" as="targetPoint" />
          </mxGeometry>
        </mxCell>
        <mxCell id="EMTmmOVKHAkTufm51TqJ-32" value="登入" style="edgeLabel;resizable=0;html=1;;align=center;verticalAlign=middle;" connectable="0" vertex="1" parent="EMTmmOVKHAkTufm51TqJ-31">
          <mxGeometry relative="1" as="geometry" />
        </mxCell>
        <mxCell id="EMTmmOVKHAkTufm51TqJ-33" value="" style="endArrow=classic;html=1;rounded=0;entryX=1;entryY=0.75;entryDx=0;entryDy=0;" edge="1" parent="QPB63ByAo_tz4oJxPM3o-1">
          <mxGeometry relative="1" as="geometry">
            <mxPoint x="576.17" y="362" as="sourcePoint" />
            <mxPoint x="489.17" y="361.5" as="targetPoint" />
          </mxGeometry>
        </mxCell>
        <mxCell id="EMTmmOVKHAkTufm51TqJ-34" value="登入" style="edgeLabel;resizable=0;html=1;;align=center;verticalAlign=middle;" connectable="0" vertex="1" parent="EMTmmOVKHAkTufm51TqJ-33">
          <mxGeometry relative="1" as="geometry">
            <mxPoint x="4" as="offset" />
          </mxGeometry>
        </mxCell>
        <mxCell id="sHyMWUJ5-oKsMNk3dhPy-0" value="資料錯誤" style="html=1;align=center;verticalAlign=top;rounded=1;absoluteArcSize=1;arcSize=10;dashed=0;whiteSpace=wrap;" vertex="1" parent="QPB63ByAo_tz4oJxPM3o-1">
          <mxGeometry x="580.17" y="162" width="140" height="40" as="geometry" />
        </mxCell>
        <mxCell id="ChlRmUnRNO_InycTn1Ig-0" value="" style="endArrow=classic;html=1;rounded=0;exitX=1;exitY=0.5;exitDx=0;exitDy=0;" edge="1" parent="QPB63ByAo_tz4oJxPM3o-1" source="sHyMWUJ5-oKsMNk3dhPy-0">
          <mxGeometry width="50" height="50" relative="1" as="geometry">
            <mxPoint x="416.17" y="392" as="sourcePoint" />
            <mxPoint x="781.17" y="182" as="targetPoint" />
          </mxGeometry>
        </mxCell>
        <mxCell id="mfkhBvhF5yz3vOIpHfA7-0" value="取消" style="edgeLabel;html=1;align=center;verticalAlign=middle;resizable=0;points=[];" connectable="0" vertex="1" parent="ChlRmUnRNO_InycTn1Ig-0">
          <mxGeometry x="-0.3115" y="-1" relative="1" as="geometry">
            <mxPoint x="5" y="-1" as="offset" />
          </mxGeometry>
        </mxCell>
        <mxCell id="ChlRmUnRNO_InycTn1Ig-1" value="" style="ellipse;html=1;shape=endState;fillColor=strokeColor;" vertex="1" parent="QPB63ByAo_tz4oJxPM3o-1">
          <mxGeometry x="781" y="165" width="30" height="30" as="geometry" />
        </mxCell>
        <mxCell id="ChlRmUnRNO_InycTn1Ig-3" value="資料錯誤" style="html=1;align=center;verticalAlign=top;rounded=1;absoluteArcSize=1;arcSize=10;dashed=0;whiteSpace=wrap;" vertex="1" parent="QPB63ByAo_tz4oJxPM3o-1">
          <mxGeometry x="108.61" y="162" width="140" height="40" as="geometry" />
        </mxCell>
        <mxCell id="ChlRmUnRNO_InycTn1Ig-5" value="" style="ellipse;html=1;shape=endState;fillColor=strokeColor;" vertex="1" parent="QPB63ByAo_tz4oJxPM3o-1">
          <mxGeometry x="20" y="167" width="30" height="30" as="geometry" />
        </mxCell>
        <mxCell id="ChlRmUnRNO_InycTn1Ig-6" value="" style="endArrow=classic;html=1;rounded=0;entryX=0.5;entryY=1;entryDx=0;entryDy=0;exitX=0.5;exitY=0;exitDx=0;exitDy=0;" edge="1" parent="QPB63ByAo_tz4oJxPM3o-1">
          <mxGeometry relative="1" as="geometry">
            <mxPoint x="208.60999999999999" y="242" as="sourcePoint" />
            <mxPoint x="208.60999999999999" y="202" as="targetPoint" />
          </mxGeometry>
        </mxCell>
        <mxCell id="ChlRmUnRNO_InycTn1Ig-7" value="[驗證失敗]" style="edgeLabel;resizable=0;html=1;;align=center;verticalAlign=middle;" connectable="0" vertex="1" parent="ChlRmUnRNO_InycTn1Ig-6">
          <mxGeometry relative="1" as="geometry" />
        </mxCell>
        <mxCell id="ChlRmUnRNO_InycTn1Ig-8" value="" style="endArrow=classic;html=1;rounded=0;entryX=1;entryY=0.5;entryDx=0;entryDy=0;exitX=0;exitY=0.5;exitDx=0;exitDy=0;" edge="1" parent="QPB63ByAo_tz4oJxPM3o-1" source="ChlRmUnRNO_InycTn1Ig-3" target="ChlRmUnRNO_InycTn1Ig-5">
          <mxGeometry width="50" height="50" relative="1" as="geometry">
            <mxPoint x="410" y="390" as="sourcePoint" />
            <mxPoint x="460" y="340" as="targetPoint" />
          </mxGeometry>
        </mxCell>
        <mxCell id="mfkhBvhF5yz3vOIpHfA7-5" value="取消" style="edgeLabel;html=1;align=center;verticalAlign=middle;resizable=0;points=[];" connectable="0" vertex="1" parent="ChlRmUnRNO_InycTn1Ig-8">
          <mxGeometry x="-0.28" y="-1" relative="1" as="geometry">
            <mxPoint x="-2" as="offset" />
          </mxGeometry>
        </mxCell>
        <mxCell id="mfkhBvhF5yz3vOIpHfA7-1" value="" style="endArrow=classic;html=1;rounded=0;entryX=0.286;entryY=-0.005;entryDx=0;entryDy=0;exitX=0.286;exitY=1.015;exitDx=0;exitDy=0;entryPerimeter=0;exitPerimeter=0;" edge="1" parent="QPB63ByAo_tz4oJxPM3o-1" source="sHyMWUJ5-oKsMNk3dhPy-0" target="EMTmmOVKHAkTufm51TqJ-3">
          <mxGeometry relative="1" as="geometry">
            <mxPoint x="696.17" y="252" as="sourcePoint" />
            <mxPoint x="696.17" y="212" as="targetPoint" />
          </mxGeometry>
        </mxCell>
        <mxCell id="mfkhBvhF5yz3vOIpHfA7-2" value="重新輸入" style="edgeLabel;resizable=0;html=1;;align=center;verticalAlign=middle;" connectable="0" vertex="1" parent="mfkhBvhF5yz3vOIpHfA7-1">
          <mxGeometry relative="1" as="geometry" />
        </mxCell>
        <mxCell id="mfkhBvhF5yz3vOIpHfA7-3" value="" style="endArrow=classic;html=1;rounded=0;entryX=0.286;entryY=-0.005;entryDx=0;entryDy=0;exitX=0.286;exitY=1.015;exitDx=0;exitDy=0;entryPerimeter=0;exitPerimeter=0;" edge="1" parent="QPB63ByAo_tz4oJxPM3o-1">
          <mxGeometry relative="1" as="geometry">
            <mxPoint x="148.61" y="202" as="sourcePoint" />
            <mxPoint x="148.61" y="241" as="targetPoint" />
          </mxGeometry>
        </mxCell>
        <mxCell id="mfkhBvhF5yz3vOIpHfA7-4" value="重新輸入" style="edgeLabel;resizable=0;html=1;;align=center;verticalAlign=middle;" connectable="0" vertex="1" parent="mfkhBvhF5yz3vOIpHfA7-3">
          <mxGeometry relative="1" as="geometry" />
        </mxCell>
      </root>
    </mxGraphModel>
  </diagram>
  <diagram name="狀態機-商家查詢" id="_onteTa9AeYQn6fKZiGi">
    <mxGraphModel grid="1" page="1" gridSize="10" guides="1" tooltips="1" connect="1" arrows="1" fold="1" pageScale="1" pageWidth="827" pageHeight="1169" math="0" shadow="0">
      <root>
        <mxCell id="yWhvFGNWk-ynj7o0DTDy-0" />
        <mxCell id="yWhvFGNWk-ynj7o0DTDy-1" parent="yWhvFGNWk-ynj7o0DTDy-0" />
        <mxCell id="yWhvFGNWk-ynj7o0DTDy-2" value="" style="ellipse;fillColor=strokeColor;html=1;" parent="yWhvFGNWk-ynj7o0DTDy-1" vertex="1">
          <mxGeometry x="398" y="160" width="30" height="30" as="geometry" />
        </mxCell>
        <mxCell id="yWhvFGNWk-ynj7o0DTDy-3" value="" style="endArrow=classic;html=1;rounded=0;exitX=0.5;exitY=1;exitDx=0;exitDy=0;" parent="yWhvFGNWk-ynj7o0DTDy-1" source="yWhvFGNWk-ynj7o0DTDy-2" edge="1">
          <mxGeometry width="50" height="50" relative="1" as="geometry">
            <mxPoint x="390" y="450" as="sourcePoint" />
            <mxPoint x="413" y="240" as="targetPoint" />
          </mxGeometry>
        </mxCell>
        <mxCell id="yWhvFGNWk-ynj7o0DTDy-5" value="主頁" style="html=1;align=center;verticalAlign=top;rounded=1;absoluteArcSize=1;arcSize=10;dashed=0;whiteSpace=wrap;" parent="yWhvFGNWk-ynj7o0DTDy-1" vertex="1">
          <mxGeometry x="344" y="240" width="140" height="40" as="geometry" />
        </mxCell>
        <mxCell id="UikiQ67zzWrg0bWeuAxZ-0" value="搜尋結果頁面" style="html=1;align=center;verticalAlign=top;rounded=1;absoluteArcSize=1;arcSize=10;dashed=0;whiteSpace=wrap;" vertex="1" parent="yWhvFGNWk-ynj7o0DTDy-1">
          <mxGeometry x="344" y="340" width="140" height="40" as="geometry" />
        </mxCell>
        <mxCell id="JKgkTHvsGaAcp2tJCs94-0" value="" style="endArrow=classic;html=1;rounded=0;exitX=0.5;exitY=1;exitDx=0;exitDy=0;entryX=0.5;entryY=0;entryDx=0;entryDy=0;" edge="1" parent="yWhvFGNWk-ynj7o0DTDy-1" source="yWhvFGNWk-ynj7o0DTDy-5" target="UikiQ67zzWrg0bWeuAxZ-0">
          <mxGeometry relative="1" as="geometry">
            <mxPoint x="390" y="310" as="sourcePoint" />
            <mxPoint x="490" y="310" as="targetPoint" />
          </mxGeometry>
        </mxCell>
        <mxCell id="JKgkTHvsGaAcp2tJCs94-1" value="輸入查詢關鍵字、地點" style="edgeLabel;resizable=0;html=1;;align=center;verticalAlign=middle;" connectable="0" vertex="1" parent="JKgkTHvsGaAcp2tJCs94-0">
          <mxGeometry relative="1" as="geometry" />
        </mxCell>
        <mxCell id="JKgkTHvsGaAcp2tJCs94-2" value="" style="endArrow=classic;html=1;rounded=0;entryX=0;entryY=0.25;entryDx=0;entryDy=0;" edge="1" parent="yWhvFGNWk-ynj7o0DTDy-1" target="VjNNWuQBx-rJbIdZ_Vzz-0">
          <mxGeometry relative="1" as="geometry">
            <mxPoint x="484" y="349.99999999999994" as="sourcePoint" />
            <mxPoint x="584" y="349.99999999999994" as="targetPoint" />
          </mxGeometry>
        </mxCell>
        <mxCell id="JKgkTHvsGaAcp2tJCs94-3" value="[無符合商家]" style="edgeLabel;resizable=0;html=1;;align=center;verticalAlign=middle;" connectable="0" vertex="1" parent="JKgkTHvsGaAcp2tJCs94-2">
          <mxGeometry relative="1" as="geometry" />
        </mxCell>
        <mxCell id="JKgkTHvsGaAcp2tJCs94-4" value="" style="endArrow=classic;html=1;rounded=0;exitX=0.5;exitY=1;exitDx=0;exitDy=0;entryX=0.5;entryY=0;entryDx=0;entryDy=0;" edge="1" parent="yWhvFGNWk-ynj7o0DTDy-1">
          <mxGeometry relative="1" as="geometry">
            <mxPoint x="413.66" y="380" as="sourcePoint" />
            <mxPoint x="413.66" y="440" as="targetPoint" />
          </mxGeometry>
        </mxCell>
        <mxCell id="JKgkTHvsGaAcp2tJCs94-5" value="[有符合商家]" style="edgeLabel;resizable=0;html=1;;align=center;verticalAlign=middle;" connectable="0" vertex="1" parent="JKgkTHvsGaAcp2tJCs94-4">
          <mxGeometry relative="1" as="geometry" />
        </mxCell>
        <mxCell id="VjNNWuQBx-rJbIdZ_Vzz-0" value="顯示無搜尋商家" style="html=1;align=center;verticalAlign=top;rounded=1;absoluteArcSize=1;arcSize=10;dashed=0;whiteSpace=wrap;" vertex="1" parent="yWhvFGNWk-ynj7o0DTDy-1">
          <mxGeometry x="650" y="340" width="140" height="40" as="geometry" />
        </mxCell>
        <mxCell id="VjNNWuQBx-rJbIdZ_Vzz-1" value="餐廳列表" style="html=1;align=center;verticalAlign=top;rounded=1;absoluteArcSize=1;arcSize=10;dashed=0;whiteSpace=wrap;" vertex="1" parent="yWhvFGNWk-ynj7o0DTDy-1">
          <mxGeometry x="344" y="440" width="140" height="40" as="geometry" />
        </mxCell>
        <mxCell id="IBmf6Ha2KwQ4CSu_swBL-0" value="" style="endArrow=classic;html=1;rounded=0;exitX=0;exitY=0.75;exitDx=0;exitDy=0;entryX=1;entryY=0.75;entryDx=0;entryDy=0;" edge="1" parent="yWhvFGNWk-ynj7o0DTDy-1" source="VjNNWuQBx-rJbIdZ_Vzz-0" target="UikiQ67zzWrg0bWeuAxZ-0">
          <mxGeometry relative="1" as="geometry">
            <mxPoint x="490" y="439.99999999999994" as="sourcePoint" />
            <mxPoint x="590" y="439.99999999999994" as="targetPoint" />
          </mxGeometry>
        </mxCell>
        <mxCell id="IBmf6Ha2KwQ4CSu_swBL-1" value="重新輸入關鍵字、地點" style="edgeLabel;resizable=0;html=1;;align=center;verticalAlign=middle;" connectable="0" vertex="1" parent="IBmf6Ha2KwQ4CSu_swBL-0">
          <mxGeometry relative="1" as="geometry" />
        </mxCell>
        <mxCell id="IBmf6Ha2KwQ4CSu_swBL-2" value="判斷是否登入" style="html=1;align=center;verticalAlign=top;rounded=1;absoluteArcSize=1;arcSize=10;dashed=0;whiteSpace=wrap;" vertex="1" parent="yWhvFGNWk-ynj7o0DTDy-1">
          <mxGeometry x="344" y="540.5" width="140" height="40" as="geometry" />
        </mxCell>
        <mxCell id="IBmf6Ha2KwQ4CSu_swBL-3" value="" style="endArrow=classic;html=1;rounded=0;exitX=0.5;exitY=1;exitDx=0;exitDy=0;entryX=0.5;entryY=0;entryDx=0;entryDy=0;" edge="1" parent="yWhvFGNWk-ynj7o0DTDy-1">
          <mxGeometry relative="1" as="geometry">
            <mxPoint x="412.66" y="480" as="sourcePoint" />
            <mxPoint x="412.66" y="540" as="targetPoint" />
          </mxGeometry>
        </mxCell>
        <mxCell id="IBmf6Ha2KwQ4CSu_swBL-4" value="選擇收藏" style="edgeLabel;resizable=0;html=1;;align=center;verticalAlign=middle;" connectable="0" vertex="1" parent="IBmf6Ha2KwQ4CSu_swBL-3">
          <mxGeometry relative="1" as="geometry" />
        </mxCell>
        <mxCell id="IBmf6Ha2KwQ4CSu_swBL-5" value="" style="endArrow=classic;html=1;rounded=0;exitX=0.5;exitY=1;exitDx=0;exitDy=0;" edge="1" parent="yWhvFGNWk-ynj7o0DTDy-1" target="IBmf6Ha2KwQ4CSu_swBL-8">
          <mxGeometry width="50" height="50" relative="1" as="geometry">
            <mxPoint x="720" y="480" as="sourcePoint" />
            <mxPoint x="720" y="504.5" as="targetPoint" />
          </mxGeometry>
        </mxCell>
        <mxCell id="IBmf6Ha2KwQ4CSu_swBL-8" value="" style="ellipse;html=1;shape=endState;fillColor=strokeColor;" vertex="1" parent="yWhvFGNWk-ynj7o0DTDy-1">
          <mxGeometry x="705" y="519.5" width="30" height="30" as="geometry" />
        </mxCell>
        <mxCell id="IBmf6Ha2KwQ4CSu_swBL-9" value="" style="endArrow=classic;html=1;rounded=0;exitX=1;exitY=0.5;exitDx=0;exitDy=0;entryX=0;entryY=0.5;entryDx=0;entryDy=0;" edge="1" parent="yWhvFGNWk-ynj7o0DTDy-1" source="VjNNWuQBx-rJbIdZ_Vzz-1" target="IBmf6Ha2KwQ4CSu_swBL-11">
          <mxGeometry relative="1" as="geometry">
            <mxPoint x="560" y="490" as="sourcePoint" />
            <mxPoint x="650" y="460" as="targetPoint" />
          </mxGeometry>
        </mxCell>
        <mxCell id="IBmf6Ha2KwQ4CSu_swBL-10" value="餐廳資訊" style="edgeLabel;resizable=0;html=1;;align=center;verticalAlign=middle;" connectable="0" vertex="1" parent="IBmf6Ha2KwQ4CSu_swBL-9">
          <mxGeometry relative="1" as="geometry" />
        </mxCell>
        <mxCell id="IBmf6Ha2KwQ4CSu_swBL-11" value="詳細餐廳資訊" style="html=1;align=center;verticalAlign=top;rounded=1;absoluteArcSize=1;arcSize=10;dashed=0;whiteSpace=wrap;" vertex="1" parent="yWhvFGNWk-ynj7o0DTDy-1">
          <mxGeometry x="650" y="440" width="140" height="40" as="geometry" />
        </mxCell>
        <mxCell id="IBmf6Ha2KwQ4CSu_swBL-15" value="" style="endArrow=classic;html=1;rounded=0;exitX=0.5;exitY=1;exitDx=0;exitDy=0;" edge="1" parent="yWhvFGNWk-ynj7o0DTDy-1">
          <mxGeometry width="50" height="50" relative="1" as="geometry">
            <mxPoint x="719.87" y="340" as="sourcePoint" />
            <mxPoint x="720" y="290" as="targetPoint" />
          </mxGeometry>
        </mxCell>
        <mxCell id="IBmf6Ha2KwQ4CSu_swBL-16" value="" style="ellipse;html=1;shape=endState;fillColor=strokeColor;" vertex="1" parent="yWhvFGNWk-ynj7o0DTDy-1">
          <mxGeometry x="705" y="260" width="30" height="30" as="geometry" />
        </mxCell>
        <mxCell id="IBmf6Ha2KwQ4CSu_swBL-18" value="" style="endArrow=classic;html=1;rounded=0;exitX=0.5;exitY=1;exitDx=0;exitDy=0;entryX=0.5;entryY=0;entryDx=0;entryDy=0;" edge="1" parent="yWhvFGNWk-ynj7o0DTDy-1" source="IBmf6Ha2KwQ4CSu_swBL-2">
          <mxGeometry relative="1" as="geometry">
            <mxPoint x="415" y="580.5" as="sourcePoint" />
            <mxPoint x="414" y="640" as="targetPoint" />
          </mxGeometry>
        </mxCell>
        <mxCell id="IBmf6Ha2KwQ4CSu_swBL-19" value="未登入" style="edgeLabel;resizable=0;html=1;;align=center;verticalAlign=middle;" connectable="0" vertex="1" parent="IBmf6Ha2KwQ4CSu_swBL-18">
          <mxGeometry relative="1" as="geometry" />
        </mxCell>
        <mxCell id="IBmf6Ha2KwQ4CSu_swBL-20" value="登入中" style="html=1;align=center;verticalAlign=top;rounded=1;absoluteArcSize=1;arcSize=10;dashed=0;whiteSpace=wrap;" vertex="1" parent="yWhvFGNWk-ynj7o0DTDy-1">
          <mxGeometry x="110" y="640" width="140" height="40" as="geometry" />
        </mxCell>
        <mxCell id="IBmf6Ha2KwQ4CSu_swBL-21" value="" style="endArrow=classic;html=1;rounded=0;exitX=0;exitY=0.5;exitDx=0;exitDy=0;entryX=0.5;entryY=0;entryDx=0;entryDy=0;" edge="1" parent="yWhvFGNWk-ynj7o0DTDy-1" source="IBmf6Ha2KwQ4CSu_swBL-2" target="IBmf6Ha2KwQ4CSu_swBL-20">
          <mxGeometry relative="1" as="geometry">
            <mxPoint x="424" y="591" as="sourcePoint" />
            <mxPoint x="424" y="650" as="targetPoint" />
            <Array as="points">
              <mxPoint x="180" y="560" />
            </Array>
          </mxGeometry>
        </mxCell>
        <mxCell id="IBmf6Ha2KwQ4CSu_swBL-22" value="已登入" style="edgeLabel;resizable=0;html=1;;align=center;verticalAlign=middle;" connectable="0" vertex="1" parent="IBmf6Ha2KwQ4CSu_swBL-21">
          <mxGeometry relative="1" as="geometry" />
        </mxCell>
        <mxCell id="IBmf6Ha2KwQ4CSu_swBL-23" value="新增收藏" style="html=1;align=center;verticalAlign=top;rounded=1;absoluteArcSize=1;arcSize=10;dashed=0;whiteSpace=wrap;" vertex="1" parent="yWhvFGNWk-ynj7o0DTDy-1">
          <mxGeometry x="110" y="819.5" width="140" height="40" as="geometry" />
        </mxCell>
        <mxCell id="IBmf6Ha2KwQ4CSu_swBL-24" value="" style="endArrow=classic;html=1;rounded=0;exitX=0.5;exitY=1;exitDx=0;exitDy=0;entryX=0.5;entryY=0;entryDx=0;entryDy=0;" edge="1" parent="yWhvFGNWk-ynj7o0DTDy-1" target="IBmf6Ha2KwQ4CSu_swBL-23">
          <mxGeometry relative="1" as="geometry">
            <mxPoint x="179.66" y="680" as="sourcePoint" />
            <mxPoint x="179.66" y="739" as="targetPoint" />
          </mxGeometry>
        </mxCell>
        <mxCell id="IBmf6Ha2KwQ4CSu_swBL-27" value="[未收藏]" style="edgeLabel;html=1;align=center;verticalAlign=middle;resizable=0;points=[];" connectable="0" vertex="1" parent="IBmf6Ha2KwQ4CSu_swBL-24">
          <mxGeometry x="0.0745" relative="1" as="geometry">
            <mxPoint as="offset" />
          </mxGeometry>
        </mxCell>
        <mxCell id="IBmf6Ha2KwQ4CSu_swBL-26" value="進行登入" style="html=1;align=center;verticalAlign=top;rounded=1;absoluteArcSize=1;arcSize=10;dashed=0;whiteSpace=wrap;" vertex="1" parent="yWhvFGNWk-ynj7o0DTDy-1">
          <mxGeometry x="344" y="640" width="140" height="40" as="geometry" />
        </mxCell>
        <mxCell id="IBmf6Ha2KwQ4CSu_swBL-28" value="" style="endArrow=classic;html=1;rounded=0;exitX=0;exitY=0.5;exitDx=0;exitDy=0;" edge="1" parent="yWhvFGNWk-ynj7o0DTDy-1" source="IBmf6Ha2KwQ4CSu_swBL-20">
          <mxGeometry relative="1" as="geometry">
            <mxPoint x="130" y="709.5" as="sourcePoint" />
            <mxPoint x="20" y="659.5" as="targetPoint" />
          </mxGeometry>
        </mxCell>
        <mxCell id="IBmf6Ha2KwQ4CSu_swBL-29" value="[已收藏]" style="edgeLabel;resizable=0;html=1;;align=center;verticalAlign=middle;" connectable="0" vertex="1" parent="IBmf6Ha2KwQ4CSu_swBL-28">
          <mxGeometry relative="1" as="geometry" />
        </mxCell>
        <mxCell id="IBmf6Ha2KwQ4CSu_swBL-30" value="取消收藏" style="html=1;align=center;verticalAlign=top;rounded=1;absoluteArcSize=1;arcSize=10;dashed=0;whiteSpace=wrap;" vertex="1" parent="yWhvFGNWk-ynj7o0DTDy-1">
          <mxGeometry x="-120" y="640" width="140" height="40" as="geometry" />
        </mxCell>
        <mxCell id="IBmf6Ha2KwQ4CSu_swBL-31" value="" style="ellipse;html=1;shape=endState;fillColor=strokeColor;" vertex="1" parent="yWhvFGNWk-ynj7o0DTDy-1">
          <mxGeometry x="-65" y="824.5" width="30" height="30" as="geometry" />
        </mxCell>
        <mxCell id="IBmf6Ha2KwQ4CSu_swBL-32" value="" style="endArrow=classic;html=1;rounded=0;exitX=0.5;exitY=1;exitDx=0;exitDy=0;entryX=0.5;entryY=0;entryDx=0;entryDy=0;" edge="1" parent="yWhvFGNWk-ynj7o0DTDy-1" source="IBmf6Ha2KwQ4CSu_swBL-30" target="IBmf6Ha2KwQ4CSu_swBL-31">
          <mxGeometry width="50" height="50" relative="1" as="geometry">
            <mxPoint x="10" y="799.5" as="sourcePoint" />
            <mxPoint x="60" y="749.5" as="targetPoint" />
          </mxGeometry>
        </mxCell>
        <mxCell id="IBmf6Ha2KwQ4CSu_swBL-33" value="" style="endArrow=classic;html=1;rounded=0;exitX=0;exitY=0.5;exitDx=0;exitDy=0;entryX=1;entryY=0.5;entryDx=0;entryDy=0;" edge="1" parent="yWhvFGNWk-ynj7o0DTDy-1" source="IBmf6Ha2KwQ4CSu_swBL-23" target="IBmf6Ha2KwQ4CSu_swBL-31">
          <mxGeometry width="50" height="50" relative="1" as="geometry">
            <mxPoint x="10" y="799.5" as="sourcePoint" />
            <mxPoint x="60" y="749.5" as="targetPoint" />
          </mxGeometry>
        </mxCell>
        <mxCell id="IBmf6Ha2KwQ4CSu_swBL-38" value="" style="endArrow=classic;html=1;rounded=0;entryX=1;entryY=0.5;entryDx=0;entryDy=0;" edge="1" parent="yWhvFGNWk-ynj7o0DTDy-1" target="IBmf6Ha2KwQ4CSu_swBL-20">
          <mxGeometry width="50" height="50" relative="1" as="geometry">
            <mxPoint x="340" y="660" as="sourcePoint" />
            <mxPoint x="390" y="550" as="targetPoint" />
          </mxGeometry>
        </mxCell>
        <mxCell id="IBmf6Ha2KwQ4CSu_swBL-39" value="[登入成功]" style="edgeLabel;html=1;align=center;verticalAlign=middle;resizable=0;points=[];" connectable="0" vertex="1" parent="IBmf6Ha2KwQ4CSu_swBL-38">
          <mxGeometry x="0.3598" y="1" relative="1" as="geometry">
            <mxPoint x="21" y="-1" as="offset" />
          </mxGeometry>
        </mxCell>
        <mxCell id="IBmf6Ha2KwQ4CSu_swBL-40" value="" style="endArrow=classic;html=1;rounded=0;exitX=0.5;exitY=1;exitDx=0;exitDy=0;" edge="1" parent="yWhvFGNWk-ynj7o0DTDy-1" source="IBmf6Ha2KwQ4CSu_swBL-26">
          <mxGeometry relative="1" as="geometry">
            <mxPoint x="330" y="700" as="sourcePoint" />
            <mxPoint x="414" y="740" as="targetPoint" />
          </mxGeometry>
        </mxCell>
        <mxCell id="IBmf6Ha2KwQ4CSu_swBL-41" value="[登入失敗]" style="edgeLabel;resizable=0;html=1;;align=center;verticalAlign=middle;" connectable="0" vertex="1" parent="IBmf6Ha2KwQ4CSu_swBL-40">
          <mxGeometry relative="1" as="geometry" />
        </mxCell>
        <mxCell id="IBmf6Ha2KwQ4CSu_swBL-42" value="收藏失敗" style="html=1;align=center;verticalAlign=top;rounded=1;absoluteArcSize=1;arcSize=10;dashed=0;whiteSpace=wrap;" vertex="1" parent="yWhvFGNWk-ynj7o0DTDy-1">
          <mxGeometry x="343" y="740" width="140" height="40" as="geometry" />
        </mxCell>
        <mxCell id="IBmf6Ha2KwQ4CSu_swBL-43" value="" style="endArrow=classic;html=1;rounded=0;exitX=0.519;exitY=1.004;exitDx=0;exitDy=0;exitPerimeter=0;" edge="1" parent="yWhvFGNWk-ynj7o0DTDy-1" source="IBmf6Ha2KwQ4CSu_swBL-42" target="IBmf6Ha2KwQ4CSu_swBL-45">
          <mxGeometry width="50" height="50" relative="1" as="geometry">
            <mxPoint x="360" y="660" as="sourcePoint" />
            <mxPoint x="416" y="820" as="targetPoint" />
          </mxGeometry>
        </mxCell>
        <mxCell id="IBmf6Ha2KwQ4CSu_swBL-45" value="" style="ellipse;html=1;shape=endState;fillColor=strokeColor;" vertex="1" parent="yWhvFGNWk-ynj7o0DTDy-1">
          <mxGeometry x="401" y="824.5000000000001" width="30" height="30" as="geometry" />
        </mxCell>
        <mxCell id="IBmf6Ha2KwQ4CSu_swBL-46" value="" style="endArrow=classic;html=1;rounded=0;exitX=0;exitY=0.25;exitDx=0;exitDy=0;entryX=0.5;entryY=1;entryDx=0;entryDy=0;" edge="1" parent="yWhvFGNWk-ynj7o0DTDy-1" source="VjNNWuQBx-rJbIdZ_Vzz-1" target="IBmf6Ha2KwQ4CSu_swBL-48">
          <mxGeometry relative="1" as="geometry">
            <mxPoint x="280" y="350" as="sourcePoint" />
            <mxPoint x="240" y="380" as="targetPoint" />
            <Array as="points">
              <mxPoint x="230" y="450" />
            </Array>
          </mxGeometry>
        </mxCell>
        <mxCell id="IBmf6Ha2KwQ4CSu_swBL-47" value="餐廳資訊" style="edgeLabel;resizable=0;html=1;;align=center;verticalAlign=middle;" connectable="0" vertex="1" parent="IBmf6Ha2KwQ4CSu_swBL-46">
          <mxGeometry relative="1" as="geometry">
            <mxPoint x="18" as="offset" />
          </mxGeometry>
        </mxCell>
        <mxCell id="IBmf6Ha2KwQ4CSu_swBL-48" value="地圖" style="html=1;align=center;verticalAlign=top;rounded=1;absoluteArcSize=1;arcSize=10;dashed=0;whiteSpace=wrap;" vertex="1" parent="yWhvFGNWk-ynj7o0DTDy-1">
          <mxGeometry x="160" y="340" width="140" height="40" as="geometry" />
        </mxCell>
        <mxCell id="IBmf6Ha2KwQ4CSu_swBL-49" value="官網" style="html=1;align=center;verticalAlign=top;rounded=1;absoluteArcSize=1;arcSize=10;dashed=0;whiteSpace=wrap;" vertex="1" parent="yWhvFGNWk-ynj7o0DTDy-1">
          <mxGeometry x="30" y="460" width="140" height="40" as="geometry" />
        </mxCell>
        <mxCell id="IBmf6Ha2KwQ4CSu_swBL-50" value="" style="endArrow=classic;html=1;rounded=0;exitX=0;exitY=0.75;exitDx=0;exitDy=0;" edge="1" parent="yWhvFGNWk-ynj7o0DTDy-1" source="VjNNWuQBx-rJbIdZ_Vzz-1">
          <mxGeometry relative="1" as="geometry">
            <mxPoint x="240" y="420" as="sourcePoint" />
            <mxPoint x="170" y="470" as="targetPoint" />
          </mxGeometry>
        </mxCell>
        <mxCell id="IBmf6Ha2KwQ4CSu_swBL-51" value="官網資訊" style="edgeLabel;resizable=0;html=1;;align=center;verticalAlign=middle;" connectable="0" vertex="1" parent="IBmf6Ha2KwQ4CSu_swBL-50">
          <mxGeometry relative="1" as="geometry" />
        </mxCell>
        <mxCell id="IBmf6Ha2KwQ4CSu_swBL-52" value="" style="ellipse;html=1;shape=endState;fillColor=strokeColor;" vertex="1" parent="yWhvFGNWk-ynj7o0DTDy-1">
          <mxGeometry x="-80" y="465" width="30" height="30" as="geometry" />
        </mxCell>
        <mxCell id="IBmf6Ha2KwQ4CSu_swBL-54" value="" style="endArrow=classic;html=1;rounded=0;entryX=1;entryY=0.5;entryDx=0;entryDy=0;exitX=0;exitY=0.5;exitDx=0;exitDy=0;" edge="1" parent="yWhvFGNWk-ynj7o0DTDy-1" source="IBmf6Ha2KwQ4CSu_swBL-49" target="IBmf6Ha2KwQ4CSu_swBL-52">
          <mxGeometry width="50" height="50" relative="1" as="geometry">
            <mxPoint x="100" y="440" as="sourcePoint" />
            <mxPoint x="150" y="390" as="targetPoint" />
          </mxGeometry>
        </mxCell>
        <mxCell id="IBmf6Ha2KwQ4CSu_swBL-55" value="" style="ellipse;html=1;shape=endState;fillColor=strokeColor;" vertex="1" parent="yWhvFGNWk-ynj7o0DTDy-1">
          <mxGeometry x="210" y="280" width="30" height="30" as="geometry" />
        </mxCell>
        <mxCell id="IBmf6Ha2KwQ4CSu_swBL-56" value="" style="endArrow=classic;html=1;rounded=0;entryX=0.5;entryY=1;entryDx=0;entryDy=0;exitX=0.464;exitY=0;exitDx=0;exitDy=0;exitPerimeter=0;" edge="1" parent="yWhvFGNWk-ynj7o0DTDy-1" source="IBmf6Ha2KwQ4CSu_swBL-48" target="IBmf6Ha2KwQ4CSu_swBL-55">
          <mxGeometry width="50" height="50" relative="1" as="geometry">
            <mxPoint x="320" y="295" as="sourcePoint" />
            <mxPoint x="440" y="205" as="targetPoint" />
          </mxGeometry>
        </mxCell>
      </root>
    </mxGraphModel>
  </diagram>
  <diagram name="狀態機-商家推薦" id="AoOWIGHmVDdT1vxQqwMf">
    <mxGraphModel grid="1" page="1" gridSize="10" guides="1" tooltips="1" connect="1" arrows="1" fold="1" pageScale="1" pageWidth="827" pageHeight="1169" math="0" shadow="0">
      <root>
        <mxCell id="W90k474VnffnFo_A1kQj-0" />
        <mxCell id="W90k474VnffnFo_A1kQj-1" parent="W90k474VnffnFo_A1kQj-0" />
        <mxCell id="W90k474VnffnFo_A1kQj-2" value="" style="ellipse;fillColor=strokeColor;html=1;" parent="W90k474VnffnFo_A1kQj-1" vertex="1">
          <mxGeometry x="289" y="170" width="30" height="30" as="geometry" />
        </mxCell>
        <mxCell id="W90k474VnffnFo_A1kQj-3" value="" style="endArrow=classic;html=1;rounded=0;exitX=0.5;exitY=1;exitDx=0;exitDy=0;" parent="W90k474VnffnFo_A1kQj-1" source="W90k474VnffnFo_A1kQj-2" edge="1">
          <mxGeometry width="50" height="50" relative="1" as="geometry">
            <mxPoint x="281" y="460" as="sourcePoint" />
            <mxPoint x="304" y="250" as="targetPoint" />
          </mxGeometry>
        </mxCell>
        <mxCell id="W90k474VnffnFo_A1kQj-4" value="主頁" style="html=1;align=center;verticalAlign=top;rounded=1;absoluteArcSize=1;arcSize=10;dashed=0;whiteSpace=wrap;" parent="W90k474VnffnFo_A1kQj-1" vertex="1">
          <mxGeometry x="235" y="250" width="140" height="40" as="geometry" />
        </mxCell>
        <mxCell id="W90k474VnffnFo_A1kQj-16" value="判斷是否登入" style="html=1;align=center;verticalAlign=top;rounded=1;absoluteArcSize=1;arcSize=10;dashed=0;whiteSpace=wrap;" parent="W90k474VnffnFo_A1kQj-1" vertex="1">
          <mxGeometry x="235" y="380" width="140" height="40" as="geometry" />
        </mxCell>
        <mxCell id="W90k474VnffnFo_A1kQj-26" value="" style="endArrow=classic;html=1;rounded=0;exitX=1;exitY=0.5;exitDx=0;exitDy=0;entryX=0.5;entryY=0;entryDx=0;entryDy=0;" parent="W90k474VnffnFo_A1kQj-1" source="W90k474VnffnFo_A1kQj-16" edge="1" target="W90k474VnffnFo_A1kQj-34">
          <mxGeometry relative="1" as="geometry">
            <mxPoint x="306" y="420" as="sourcePoint" />
            <mxPoint x="305" y="479.5" as="targetPoint" />
            <Array as="points">
              <mxPoint x="551" y="400" />
            </Array>
          </mxGeometry>
        </mxCell>
        <mxCell id="W90k474VnffnFo_A1kQj-27" value="未登入" style="edgeLabel;resizable=0;html=1;;align=center;verticalAlign=middle;" parent="W90k474VnffnFo_A1kQj-26" connectable="0" vertex="1">
          <mxGeometry relative="1" as="geometry" />
        </mxCell>
        <mxCell id="W90k474VnffnFo_A1kQj-28" value="登入中" style="html=1;align=center;verticalAlign=top;rounded=1;absoluteArcSize=1;arcSize=10;dashed=0;whiteSpace=wrap;" parent="W90k474VnffnFo_A1kQj-1" vertex="1">
          <mxGeometry x="235" y="479.5" width="140" height="40" as="geometry" />
        </mxCell>
        <mxCell id="W90k474VnffnFo_A1kQj-31" value="偏好餐廳列表" style="html=1;align=center;verticalAlign=top;rounded=1;absoluteArcSize=1;arcSize=10;dashed=0;whiteSpace=wrap;" parent="W90k474VnffnFo_A1kQj-1" vertex="1">
          <mxGeometry x="235" y="579" width="140" height="40" as="geometry" />
        </mxCell>
        <mxCell id="W90k474VnffnFo_A1kQj-32" value="" style="endArrow=classic;html=1;rounded=0;exitX=0.5;exitY=1;exitDx=0;exitDy=0;entryX=0.5;entryY=0;entryDx=0;entryDy=0;" parent="W90k474VnffnFo_A1kQj-1" target="W90k474VnffnFo_A1kQj-31" edge="1">
          <mxGeometry relative="1" as="geometry">
            <mxPoint x="304.65999999999997" y="519.5" as="sourcePoint" />
            <mxPoint x="304.65999999999997" y="578.5" as="targetPoint" />
          </mxGeometry>
        </mxCell>
        <mxCell id="XTua7EpaJmK2ZncpiNEZ-17" value="[已設定偏好]" style="edgeLabel;html=1;align=center;verticalAlign=middle;resizable=0;points=[];" connectable="0" vertex="1" parent="W90k474VnffnFo_A1kQj-32">
          <mxGeometry x="-0.2092" y="-1" relative="1" as="geometry">
            <mxPoint as="offset" />
          </mxGeometry>
        </mxCell>
        <mxCell id="W90k474VnffnFo_A1kQj-34" value="進行登入" style="html=1;align=center;verticalAlign=top;rounded=1;absoluteArcSize=1;arcSize=10;dashed=0;whiteSpace=wrap;" parent="W90k474VnffnFo_A1kQj-1" vertex="1">
          <mxGeometry x="481" y="479.5" width="140" height="40" as="geometry" />
        </mxCell>
        <mxCell id="W90k474VnffnFo_A1kQj-40" value="" style="endArrow=classic;html=1;rounded=0;exitX=0.5;exitY=1;exitDx=0;exitDy=0;" edge="1" parent="W90k474VnffnFo_A1kQj-1" source="W90k474VnffnFo_A1kQj-31">
          <mxGeometry width="50" height="50" relative="1" as="geometry">
            <mxPoint x="319" y="693.5" as="sourcePoint" />
            <mxPoint x="305" y="660" as="targetPoint" />
          </mxGeometry>
        </mxCell>
        <mxCell id="W90k474VnffnFo_A1kQj-43" value="" style="endArrow=classic;html=1;rounded=0;exitX=0.5;exitY=1;exitDx=0;exitDy=0;entryX=0.5;entryY=0;entryDx=0;entryDy=0;" parent="W90k474VnffnFo_A1kQj-1" source="W90k474VnffnFo_A1kQj-34" edge="1" target="W90k474VnffnFo_A1kQj-45">
          <mxGeometry relative="1" as="geometry">
            <mxPoint x="221" y="639" as="sourcePoint" />
            <mxPoint x="305" y="679" as="targetPoint" />
          </mxGeometry>
        </mxCell>
        <mxCell id="W90k474VnffnFo_A1kQj-44" value="[登入失敗]" style="edgeLabel;resizable=0;html=1;;align=center;verticalAlign=middle;" parent="W90k474VnffnFo_A1kQj-43" connectable="0" vertex="1">
          <mxGeometry relative="1" as="geometry" />
        </mxCell>
        <mxCell id="W90k474VnffnFo_A1kQj-45" value="偏好推薦失敗" style="html=1;align=center;verticalAlign=top;rounded=1;absoluteArcSize=1;arcSize=10;dashed=0;whiteSpace=wrap;" parent="W90k474VnffnFo_A1kQj-1" vertex="1">
          <mxGeometry x="481" y="579" width="140" height="40" as="geometry" />
        </mxCell>
        <mxCell id="W90k474VnffnFo_A1kQj-47" value="" style="ellipse;html=1;shape=endState;fillColor=strokeColor;" parent="W90k474VnffnFo_A1kQj-1" vertex="1">
          <mxGeometry x="536" y="743" width="30" height="30" as="geometry" />
        </mxCell>
        <mxCell id="lBFmC3O-z7VOep9j06CS-0" value="" style="endArrow=classic;html=1;rounded=0;exitX=0.5;exitY=1;exitDx=0;exitDy=0;" edge="1" parent="W90k474VnffnFo_A1kQj-1" source="W90k474VnffnFo_A1kQj-4">
          <mxGeometry width="50" height="50" relative="1" as="geometry">
            <mxPoint x="211" y="470" as="sourcePoint" />
            <mxPoint x="305" y="380" as="targetPoint" />
          </mxGeometry>
        </mxCell>
        <mxCell id="lBFmC3O-z7VOep9j06CS-1" value="偏好推薦" style="edgeLabel;html=1;align=center;verticalAlign=middle;resizable=0;points=[];" connectable="0" vertex="1" parent="lBFmC3O-z7VOep9j06CS-0">
          <mxGeometry x="-0.1333" relative="1" as="geometry">
            <mxPoint as="offset" />
          </mxGeometry>
        </mxCell>
        <mxCell id="lBFmC3O-z7VOep9j06CS-2" value="" style="endArrow=classic;html=1;rounded=0;" edge="1" parent="W90k474VnffnFo_A1kQj-1">
          <mxGeometry relative="1" as="geometry">
            <mxPoint x="375" y="269.66" as="sourcePoint" />
            <mxPoint x="475" y="269.66" as="targetPoint" />
          </mxGeometry>
        </mxCell>
        <mxCell id="lBFmC3O-z7VOep9j06CS-3" value="熱門推薦" style="edgeLabel;resizable=0;html=1;;align=center;verticalAlign=middle;" connectable="0" vertex="1" parent="lBFmC3O-z7VOep9j06CS-2">
          <mxGeometry relative="1" as="geometry" />
        </mxCell>
        <mxCell id="lBFmC3O-z7VOep9j06CS-5" value="" style="endArrow=classic;html=1;rounded=0;exitX=0;exitY=0.5;exitDx=0;exitDy=0;entryX=1;entryY=0.5;entryDx=0;entryDy=0;" edge="1" parent="W90k474VnffnFo_A1kQj-1" source="W90k474VnffnFo_A1kQj-4" target="XTua7EpaJmK2ZncpiNEZ-13">
          <mxGeometry relative="1" as="geometry">
            <mxPoint x="385" y="279.66" as="sourcePoint" />
            <mxPoint x="141" y="270" as="targetPoint" />
          </mxGeometry>
        </mxCell>
        <mxCell id="lBFmC3O-z7VOep9j06CS-6" value="隨機推薦" style="edgeLabel;resizable=0;html=1;;align=center;verticalAlign=middle;" connectable="0" vertex="1" parent="lBFmC3O-z7VOep9j06CS-5">
          <mxGeometry relative="1" as="geometry" />
        </mxCell>
        <mxCell id="YwgoUN6NbDwxs5Cd-quV-0" value="" style="endArrow=classic;html=1;rounded=0;exitX=0;exitY=0.5;exitDx=0;exitDy=0;entryX=1;entryY=0.5;entryDx=0;entryDy=0;" edge="1" parent="W90k474VnffnFo_A1kQj-1" source="W90k474VnffnFo_A1kQj-34" target="W90k474VnffnFo_A1kQj-28">
          <mxGeometry relative="1" as="geometry">
            <mxPoint x="451" y="390" as="sourcePoint" />
            <mxPoint x="551" y="390" as="targetPoint" />
          </mxGeometry>
        </mxCell>
        <mxCell id="YwgoUN6NbDwxs5Cd-quV-1" value="[登入成功]" style="edgeLabel;resizable=0;html=1;;align=center;verticalAlign=middle;" connectable="0" vertex="1" parent="YwgoUN6NbDwxs5Cd-quV-0">
          <mxGeometry relative="1" as="geometry" />
        </mxCell>
        <mxCell id="YwgoUN6NbDwxs5Cd-quV-3" value="" style="endArrow=classic;html=1;rounded=0;exitX=0.5;exitY=1;exitDx=0;exitDy=0;entryX=0.5;entryY=0;entryDx=0;entryDy=0;" edge="1" parent="W90k474VnffnFo_A1kQj-1" source="W90k474VnffnFo_A1kQj-16" target="W90k474VnffnFo_A1kQj-28">
          <mxGeometry relative="1" as="geometry">
            <mxPoint x="321" y="390" as="sourcePoint" />
            <mxPoint x="421" y="390" as="targetPoint" />
          </mxGeometry>
        </mxCell>
        <mxCell id="YwgoUN6NbDwxs5Cd-quV-4" value="[已登入]" style="edgeLabel;resizable=0;html=1;;align=center;verticalAlign=middle;" connectable="0" vertex="1" parent="YwgoUN6NbDwxs5Cd-quV-3">
          <mxGeometry relative="1" as="geometry" />
        </mxCell>
        <mxCell id="XTua7EpaJmK2ZncpiNEZ-0" value="偏好餐廳資訊" style="html=1;align=center;verticalAlign=top;rounded=1;absoluteArcSize=1;arcSize=10;dashed=0;whiteSpace=wrap;" vertex="1" parent="W90k474VnffnFo_A1kQj-1">
          <mxGeometry x="235" y="660.5" width="140" height="40" as="geometry" />
        </mxCell>
        <mxCell id="XTua7EpaJmK2ZncpiNEZ-1" value="" style="endArrow=classic;html=1;rounded=0;exitX=0.5;exitY=1;exitDx=0;exitDy=0;" edge="1" parent="W90k474VnffnFo_A1kQj-1" source="XTua7EpaJmK2ZncpiNEZ-0" target="XTua7EpaJmK2ZncpiNEZ-2">
          <mxGeometry width="50" height="50" relative="1" as="geometry">
            <mxPoint x="311" y="600" as="sourcePoint" />
            <mxPoint x="305" y="740" as="targetPoint" />
          </mxGeometry>
        </mxCell>
        <mxCell id="XTua7EpaJmK2ZncpiNEZ-2" value="" style="ellipse;html=1;shape=endState;fillColor=strokeColor;" vertex="1" parent="W90k474VnffnFo_A1kQj-1">
          <mxGeometry x="290.0000000000001" y="740" width="30" height="30" as="geometry" />
        </mxCell>
        <mxCell id="XTua7EpaJmK2ZncpiNEZ-3" value="熱門餐廳列表" style="html=1;align=center;verticalAlign=top;rounded=1;absoluteArcSize=1;arcSize=10;dashed=0;whiteSpace=wrap;" vertex="1" parent="W90k474VnffnFo_A1kQj-1">
          <mxGeometry x="476" y="250" width="140" height="40" as="geometry" />
        </mxCell>
        <mxCell id="XTua7EpaJmK2ZncpiNEZ-4" value="" style="endArrow=classic;html=1;rounded=0;" edge="1" parent="W90k474VnffnFo_A1kQj-1" source="XTua7EpaJmK2ZncpiNEZ-6">
          <mxGeometry relative="1" as="geometry">
            <mxPoint x="616" y="269.66" as="sourcePoint" />
            <mxPoint x="716" y="269.66" as="targetPoint" />
          </mxGeometry>
        </mxCell>
        <mxCell id="XTua7EpaJmK2ZncpiNEZ-7" value="" style="endArrow=classic;html=1;rounded=0;" edge="1" parent="W90k474VnffnFo_A1kQj-1" target="XTua7EpaJmK2ZncpiNEZ-6">
          <mxGeometry relative="1" as="geometry">
            <mxPoint x="616" y="269.66" as="sourcePoint" />
            <mxPoint x="716" y="269.66" as="targetPoint" />
          </mxGeometry>
        </mxCell>
        <mxCell id="XTua7EpaJmK2ZncpiNEZ-6" value="熱門餐廳資訊" style="html=1;align=center;verticalAlign=top;rounded=1;absoluteArcSize=1;arcSize=10;dashed=0;whiteSpace=wrap;" vertex="1" parent="W90k474VnffnFo_A1kQj-1">
          <mxGeometry x="671" y="250" width="140" height="40" as="geometry" />
        </mxCell>
        <mxCell id="XTua7EpaJmK2ZncpiNEZ-8" value="" style="ellipse;html=1;shape=endState;fillColor=strokeColor;" vertex="1" parent="W90k474VnffnFo_A1kQj-1">
          <mxGeometry x="726" y="320" width="30" height="30" as="geometry" />
        </mxCell>
        <mxCell id="XTua7EpaJmK2ZncpiNEZ-9" value="" style="endArrow=classic;html=1;rounded=0;entryX=0.5;entryY=0;entryDx=0;entryDy=0;exitX=0.5;exitY=1;exitDx=0;exitDy=0;" edge="1" parent="W90k474VnffnFo_A1kQj-1" source="XTua7EpaJmK2ZncpiNEZ-6" target="XTua7EpaJmK2ZncpiNEZ-8">
          <mxGeometry width="50" height="50" relative="1" as="geometry">
            <mxPoint x="491" y="410" as="sourcePoint" />
            <mxPoint x="541" y="360" as="targetPoint" />
          </mxGeometry>
        </mxCell>
        <mxCell id="XTua7EpaJmK2ZncpiNEZ-10" value="熱門餐廳資訊" style="html=1;align=center;verticalAlign=top;rounded=1;absoluteArcSize=1;arcSize=10;dashed=0;whiteSpace=wrap;" vertex="1" parent="W90k474VnffnFo_A1kQj-1">
          <mxGeometry x="20" y="330" width="140" height="40" as="geometry" />
        </mxCell>
        <mxCell id="XTua7EpaJmK2ZncpiNEZ-11" value="" style="endArrow=classic;html=1;rounded=0;" edge="1" parent="W90k474VnffnFo_A1kQj-1" source="XTua7EpaJmK2ZncpiNEZ-13">
          <mxGeometry relative="1" as="geometry">
            <mxPoint x="-35" y="269.66" as="sourcePoint" />
            <mxPoint x="65" y="269.66" as="targetPoint" />
          </mxGeometry>
        </mxCell>
        <mxCell id="XTua7EpaJmK2ZncpiNEZ-12" value="" style="endArrow=classic;html=1;rounded=0;exitX=0.5;exitY=1;exitDx=0;exitDy=0;entryX=0.5;entryY=0;entryDx=0;entryDy=0;" edge="1" parent="W90k474VnffnFo_A1kQj-1" source="XTua7EpaJmK2ZncpiNEZ-13" target="XTua7EpaJmK2ZncpiNEZ-10">
          <mxGeometry relative="1" as="geometry">
            <mxPoint x="-19" y="380" as="sourcePoint" />
            <mxPoint x="62.75" y="319.9999999999999" as="targetPoint" />
          </mxGeometry>
        </mxCell>
        <mxCell id="XTua7EpaJmK2ZncpiNEZ-13" value="熱門餐廳列表" style="html=1;align=center;verticalAlign=top;rounded=1;absoluteArcSize=1;arcSize=10;dashed=0;whiteSpace=wrap;" vertex="1" parent="W90k474VnffnFo_A1kQj-1">
          <mxGeometry x="20" y="250" width="140" height="40" as="geometry" />
        </mxCell>
        <mxCell id="XTua7EpaJmK2ZncpiNEZ-14" value="" style="ellipse;html=1;shape=endState;fillColor=strokeColor;" vertex="1" parent="W90k474VnffnFo_A1kQj-1">
          <mxGeometry x="75" y="390" width="30" height="30" as="geometry" />
        </mxCell>
        <mxCell id="XTua7EpaJmK2ZncpiNEZ-15" value="" style="endArrow=classic;html=1;rounded=0;entryX=0.5;entryY=0;entryDx=0;entryDy=0;exitX=0.5;exitY=1;exitDx=0;exitDy=0;" edge="1" parent="W90k474VnffnFo_A1kQj-1" source="XTua7EpaJmK2ZncpiNEZ-10" target="XTua7EpaJmK2ZncpiNEZ-14">
          <mxGeometry width="50" height="50" relative="1" as="geometry">
            <mxPoint x="92" y="419.4999999999999" as="sourcePoint" />
            <mxPoint x="-108" y="489.5" as="targetPoint" />
          </mxGeometry>
        </mxCell>
        <mxCell id="XTua7EpaJmK2ZncpiNEZ-16" value="前往設定偏好" style="html=1;align=center;verticalAlign=top;rounded=1;absoluteArcSize=1;arcSize=10;dashed=0;whiteSpace=wrap;" vertex="1" parent="W90k474VnffnFo_A1kQj-1">
          <mxGeometry x="20" y="479.5" width="140" height="40" as="geometry" />
        </mxCell>
        <mxCell id="XTua7EpaJmK2ZncpiNEZ-18" value="" style="endArrow=classic;html=1;rounded=0;exitX=0;exitY=0.5;exitDx=0;exitDy=0;entryX=1;entryY=0.5;entryDx=0;entryDy=0;" edge="1" parent="W90k474VnffnFo_A1kQj-1" source="W90k474VnffnFo_A1kQj-28" target="XTua7EpaJmK2ZncpiNEZ-16">
          <mxGeometry relative="1" as="geometry">
            <mxPoint x="200" y="440" as="sourcePoint" />
            <mxPoint x="300" y="440" as="targetPoint" />
          </mxGeometry>
        </mxCell>
        <mxCell id="XTua7EpaJmK2ZncpiNEZ-19" value="未設定偏好" style="edgeLabel;resizable=0;html=1;;align=center;verticalAlign=middle;" connectable="0" vertex="1" parent="XTua7EpaJmK2ZncpiNEZ-18">
          <mxGeometry relative="1" as="geometry" />
        </mxCell>
        <mxCell id="XTua7EpaJmK2ZncpiNEZ-21" value="偏好設定完成" style="html=1;align=center;verticalAlign=top;rounded=1;absoluteArcSize=1;arcSize=10;dashed=0;whiteSpace=wrap;" vertex="1" parent="W90k474VnffnFo_A1kQj-1">
          <mxGeometry x="20" y="579" width="140" height="40" as="geometry" />
        </mxCell>
        <mxCell id="XTua7EpaJmK2ZncpiNEZ-22" value="" style="endArrow=classic;html=1;rounded=0;exitX=1;exitY=0.5;exitDx=0;exitDy=0;entryX=0;entryY=0.5;entryDx=0;entryDy=0;" edge="1" parent="W90k474VnffnFo_A1kQj-1" source="XTua7EpaJmK2ZncpiNEZ-21" target="W90k474VnffnFo_A1kQj-31">
          <mxGeometry width="50" height="50" relative="1" as="geometry">
            <mxPoint x="180" y="640" as="sourcePoint" />
            <mxPoint x="230" y="590" as="targetPoint" />
          </mxGeometry>
        </mxCell>
        <mxCell id="XTua7EpaJmK2ZncpiNEZ-23" value="" style="endArrow=classic;html=1;rounded=0;exitX=0.5;exitY=1;exitDx=0;exitDy=0;entryX=0.5;entryY=0;entryDx=0;entryDy=0;" edge="1" parent="W90k474VnffnFo_A1kQj-1" source="XTua7EpaJmK2ZncpiNEZ-16" target="XTua7EpaJmK2ZncpiNEZ-21">
          <mxGeometry relative="1" as="geometry">
            <mxPoint x="160" y="550" as="sourcePoint" />
            <mxPoint x="260" y="550" as="targetPoint" />
          </mxGeometry>
        </mxCell>
        <mxCell id="XTua7EpaJmK2ZncpiNEZ-24" value="進行偏好設定" style="edgeLabel;resizable=0;html=1;;align=center;verticalAlign=middle;" connectable="0" vertex="1" parent="XTua7EpaJmK2ZncpiNEZ-23">
          <mxGeometry relative="1" as="geometry" />
        </mxCell>
        <mxCell id="mEFoim4YzB0SsDQVVHVR-0" value="" style="endArrow=classic;html=1;rounded=0;exitX=0;exitY=0.5;exitDx=0;exitDy=0;entryX=0.5;entryY=0;entryDx=0;entryDy=0;" edge="1" parent="W90k474VnffnFo_A1kQj-1" source="XTua7EpaJmK2ZncpiNEZ-16" target="mEFoim4YzB0SsDQVVHVR-2">
          <mxGeometry relative="1" as="geometry">
            <mxPoint x="40" y="550" as="sourcePoint" />
            <mxPoint x="-40" y="500" as="targetPoint" />
            <Array as="points">
              <mxPoint x="-90" y="500" />
            </Array>
          </mxGeometry>
        </mxCell>
        <mxCell id="mEFoim4YzB0SsDQVVHVR-1" value="不進行資料設定" style="edgeLabel;resizable=0;html=1;;align=center;verticalAlign=middle;" connectable="0" vertex="1" parent="mEFoim4YzB0SsDQVVHVR-0">
          <mxGeometry relative="1" as="geometry">
            <mxPoint x="34" as="offset" />
          </mxGeometry>
        </mxCell>
        <mxCell id="mEFoim4YzB0SsDQVVHVR-2" value="偏好推薦失敗" style="html=1;align=center;verticalAlign=top;rounded=1;absoluteArcSize=1;arcSize=10;dashed=0;whiteSpace=wrap;" vertex="1" parent="W90k474VnffnFo_A1kQj-1">
          <mxGeometry x="-160" y="579" width="140" height="40" as="geometry" />
        </mxCell>
        <mxCell id="mEFoim4YzB0SsDQVVHVR-7" value="無資料" style="html=1;align=center;verticalAlign=top;rounded=1;absoluteArcSize=1;arcSize=10;dashed=0;whiteSpace=wrap;" vertex="1" parent="W90k474VnffnFo_A1kQj-1">
          <mxGeometry x="481" y="660.5" width="140" height="40" as="geometry" />
        </mxCell>
        <mxCell id="mEFoim4YzB0SsDQVVHVR-8" value="" style="endArrow=classic;html=1;rounded=0;exitX=0.5;exitY=1;exitDx=0;exitDy=0;entryX=0.5;entryY=0;entryDx=0;entryDy=0;" edge="1" parent="W90k474VnffnFo_A1kQj-1" source="W90k474VnffnFo_A1kQj-45" target="mEFoim4YzB0SsDQVVHVR-7">
          <mxGeometry width="50" height="50" relative="1" as="geometry">
            <mxPoint x="460" y="670" as="sourcePoint" />
            <mxPoint x="510" y="620" as="targetPoint" />
          </mxGeometry>
        </mxCell>
        <mxCell id="mEFoim4YzB0SsDQVVHVR-9" value="" style="endArrow=classic;html=1;rounded=0;exitX=0.5;exitY=1;exitDx=0;exitDy=0;entryX=0.5;entryY=0;entryDx=0;entryDy=0;" edge="1" parent="W90k474VnffnFo_A1kQj-1">
          <mxGeometry width="50" height="50" relative="1" as="geometry">
            <mxPoint x="550.79" y="700.5" as="sourcePoint" />
            <mxPoint x="550.79" y="742.5" as="targetPoint" />
          </mxGeometry>
        </mxCell>
        <mxCell id="mEFoim4YzB0SsDQVVHVR-10" value="" style="ellipse;html=1;shape=endState;fillColor=strokeColor;" vertex="1" parent="W90k474VnffnFo_A1kQj-1">
          <mxGeometry x="-105" y="736" width="30" height="30" as="geometry" />
        </mxCell>
        <mxCell id="mEFoim4YzB0SsDQVVHVR-11" value="無資料" style="html=1;align=center;verticalAlign=top;rounded=1;absoluteArcSize=1;arcSize=10;dashed=0;whiteSpace=wrap;" vertex="1" parent="W90k474VnffnFo_A1kQj-1">
          <mxGeometry x="-160" y="657.5" width="140" height="40" as="geometry" />
        </mxCell>
        <mxCell id="mEFoim4YzB0SsDQVVHVR-13" value="" style="endArrow=classic;html=1;rounded=0;exitX=0.5;exitY=1;exitDx=0;exitDy=0;entryX=0.5;entryY=0;entryDx=0;entryDy=0;" edge="1" parent="W90k474VnffnFo_A1kQj-1" source="mEFoim4YzB0SsDQVVHVR-2" target="mEFoim4YzB0SsDQVVHVR-11">
          <mxGeometry width="50" height="50" relative="1" as="geometry">
            <mxPoint x="-70" y="670" as="sourcePoint" />
            <mxPoint x="-20" y="620" as="targetPoint" />
          </mxGeometry>
        </mxCell>
        <mxCell id="mEFoim4YzB0SsDQVVHVR-14" value="" style="endArrow=classic;html=1;rounded=0;exitX=0.5;exitY=1;exitDx=0;exitDy=0;entryX=0.5;entryY=0;entryDx=0;entryDy=0;" edge="1" parent="W90k474VnffnFo_A1kQj-1">
          <mxGeometry width="50" height="50" relative="1" as="geometry">
            <mxPoint x="-90.21000000000001" y="697.5" as="sourcePoint" />
            <mxPoint x="-90.21000000000001" y="735.5" as="targetPoint" />
          </mxGeometry>
        </mxCell>
      </root>
    </mxGraphModel>
  </diagram>
  <diagram name="狀態機-會員資料修改" id="SfkbC0NKnBIotjhHLMJ_">
    <mxGraphModel grid="1" page="1" gridSize="10" guides="1" tooltips="1" connect="1" arrows="1" fold="1" pageScale="1" pageWidth="827" pageHeight="1169" math="0" shadow="0">
      <root>
        <mxCell id="ApoguqNmYwHQ0Cc2iYDs-0" />
        <mxCell id="ApoguqNmYwHQ0Cc2iYDs-1" parent="ApoguqNmYwHQ0Cc2iYDs-0" />
        <mxCell id="ApoguqNmYwHQ0Cc2iYDs-2" value="" style="ellipse;fillColor=strokeColor;html=1;" parent="ApoguqNmYwHQ0Cc2iYDs-1" vertex="1">
          <mxGeometry x="334" y="160" width="30" height="30" as="geometry" />
        </mxCell>
        <mxCell id="ApoguqNmYwHQ0Cc2iYDs-3" value="" style="endArrow=classic;html=1;rounded=0;exitX=0.5;exitY=1;exitDx=0;exitDy=0;" parent="ApoguqNmYwHQ0Cc2iYDs-1" source="ApoguqNmYwHQ0Cc2iYDs-2" edge="1">
          <mxGeometry width="50" height="50" relative="1" as="geometry">
            <mxPoint x="326" y="450" as="sourcePoint" />
            <mxPoint x="349" y="240" as="targetPoint" />
          </mxGeometry>
        </mxCell>
        <mxCell id="ApoguqNmYwHQ0Cc2iYDs-4" value="登入中" style="html=1;align=center;verticalAlign=top;rounded=1;absoluteArcSize=1;arcSize=10;dashed=0;whiteSpace=wrap;" parent="ApoguqNmYwHQ0Cc2iYDs-1" vertex="1">
          <mxGeometry x="280" y="240" width="140" height="40" as="geometry" />
        </mxCell>
        <mxCell id="ApoguqNmYwHQ0Cc2iYDs-5" value="會員資料" style="html=1;align=center;verticalAlign=top;rounded=1;absoluteArcSize=1;arcSize=10;dashed=0;whiteSpace=wrap;" parent="ApoguqNmYwHQ0Cc2iYDs-1" vertex="1">
          <mxGeometry x="280" y="330" width="140" height="40" as="geometry" />
        </mxCell>
        <mxCell id="ApoguqNmYwHQ0Cc2iYDs-18" value="" style="endArrow=classic;html=1;rounded=0;exitX=0.5;exitY=1;exitDx=0;exitDy=0;entryX=0.5;entryY=0;entryDx=0;entryDy=0;" parent="ApoguqNmYwHQ0Cc2iYDs-1" source="ApoguqNmYwHQ0Cc2iYDs-4" edge="1" target="ApoguqNmYwHQ0Cc2iYDs-5">
          <mxGeometry width="50" height="50" relative="1" as="geometry">
            <mxPoint x="256" y="460" as="sourcePoint" />
            <mxPoint x="350" y="370" as="targetPoint" />
          </mxGeometry>
        </mxCell>
        <mxCell id="LQP286aBlWWJHo7sRort-0" value="會員專區" style="edgeLabel;html=1;align=center;verticalAlign=middle;resizable=0;points=[];" connectable="0" vertex="1" parent="ApoguqNmYwHQ0Cc2iYDs-18">
          <mxGeometry x="-0.1638" relative="1" as="geometry">
            <mxPoint as="offset" />
          </mxGeometry>
        </mxCell>
        <mxCell id="LQP286aBlWWJHo7sRort-1" value="驗證資料格式" style="html=1;align=center;verticalAlign=top;rounded=1;absoluteArcSize=1;arcSize=10;dashed=0;whiteSpace=wrap;" vertex="1" parent="ApoguqNmYwHQ0Cc2iYDs-1">
          <mxGeometry x="280" y="420" width="140" height="40" as="geometry" />
        </mxCell>
        <mxCell id="LQP286aBlWWJHo7sRort-2" value="" style="endArrow=classic;html=1;rounded=0;exitX=0.5;exitY=1;exitDx=0;exitDy=0;entryX=0.5;entryY=0;entryDx=0;entryDy=0;" edge="1" parent="ApoguqNmYwHQ0Cc2iYDs-1">
          <mxGeometry width="50" height="50" relative="1" as="geometry">
            <mxPoint x="349.58" y="370" as="sourcePoint" />
            <mxPoint x="349.58" y="420" as="targetPoint" />
          </mxGeometry>
        </mxCell>
        <mxCell id="LQP286aBlWWJHo7sRort-3" value="修改會員資料" style="edgeLabel;html=1;align=center;verticalAlign=middle;resizable=0;points=[];" connectable="0" vertex="1" parent="LQP286aBlWWJHo7sRort-2">
          <mxGeometry x="-0.1638" relative="1" as="geometry">
            <mxPoint as="offset" />
          </mxGeometry>
        </mxCell>
        <mxCell id="CedR5HkErJwqgf97mrZx-0" value="資料格式錯誤" style="html=1;align=center;verticalAlign=top;rounded=1;absoluteArcSize=1;arcSize=10;dashed=0;whiteSpace=wrap;" vertex="1" parent="ApoguqNmYwHQ0Cc2iYDs-1">
          <mxGeometry x="515" y="420" width="140" height="40" as="geometry" />
        </mxCell>
        <mxCell id="CedR5HkErJwqgf97mrZx-1" value="" style="endArrow=classic;html=1;rounded=0;exitX=0.5;exitY=1;exitDx=0;exitDy=0;entryX=0.5;entryY=0;entryDx=0;entryDy=0;" edge="1" parent="ApoguqNmYwHQ0Cc2iYDs-1">
          <mxGeometry width="50" height="50" relative="1" as="geometry">
            <mxPoint x="349.58" y="460" as="sourcePoint" />
            <mxPoint x="349.58" y="510" as="targetPoint" />
          </mxGeometry>
        </mxCell>
        <mxCell id="CedR5HkErJwqgf97mrZx-2" value="[驗證成功]" style="edgeLabel;html=1;align=center;verticalAlign=middle;resizable=0;points=[];" connectable="0" vertex="1" parent="CedR5HkErJwqgf97mrZx-1">
          <mxGeometry x="-0.1638" relative="1" as="geometry">
            <mxPoint as="offset" />
          </mxGeometry>
        </mxCell>
        <mxCell id="CedR5HkErJwqgf97mrZx-3" value="會員資料修改完成" style="html=1;align=center;verticalAlign=top;rounded=1;absoluteArcSize=1;arcSize=10;dashed=0;whiteSpace=wrap;" vertex="1" parent="ApoguqNmYwHQ0Cc2iYDs-1">
          <mxGeometry x="280" y="510" width="140" height="40" as="geometry" />
        </mxCell>
        <mxCell id="FlBEOHzn1FS0Q1g7CQQ--0" value="" style="endArrow=classic;html=1;rounded=0;exitX=1;exitY=0.5;exitDx=0;exitDy=0;entryX=0;entryY=0.5;entryDx=0;entryDy=0;" edge="1" parent="ApoguqNmYwHQ0Cc2iYDs-1" source="LQP286aBlWWJHo7sRort-1" target="CedR5HkErJwqgf97mrZx-0">
          <mxGeometry width="50" height="50" relative="1" as="geometry">
            <mxPoint x="458" y="460" as="sourcePoint" />
            <mxPoint x="458" y="510" as="targetPoint" />
          </mxGeometry>
        </mxCell>
        <mxCell id="FlBEOHzn1FS0Q1g7CQQ--1" value="[驗證失敗]" style="edgeLabel;html=1;align=center;verticalAlign=middle;resizable=0;points=[];" connectable="0" vertex="1" parent="FlBEOHzn1FS0Q1g7CQQ--0">
          <mxGeometry x="-0.1638" relative="1" as="geometry">
            <mxPoint as="offset" />
          </mxGeometry>
        </mxCell>
        <mxCell id="FlBEOHzn1FS0Q1g7CQQ--5" value="" style="endArrow=classic;html=1;rounded=0;entryX=1;entryY=0.5;entryDx=0;entryDy=0;exitX=0.5;exitY=0;exitDx=0;exitDy=0;" edge="1" parent="ApoguqNmYwHQ0Cc2iYDs-1" source="CedR5HkErJwqgf97mrZx-0" target="ApoguqNmYwHQ0Cc2iYDs-5">
          <mxGeometry relative="1" as="geometry">
            <mxPoint x="435" y="300" as="sourcePoint" />
            <mxPoint x="535" y="300" as="targetPoint" />
            <Array as="points">
              <mxPoint x="585" y="350" />
            </Array>
          </mxGeometry>
        </mxCell>
        <mxCell id="FlBEOHzn1FS0Q1g7CQQ--6" value="重新輸入資料" style="edgeLabel;resizable=0;html=1;;align=center;verticalAlign=middle;" connectable="0" vertex="1" parent="FlBEOHzn1FS0Q1g7CQQ--5">
          <mxGeometry relative="1" as="geometry" />
        </mxCell>
        <mxCell id="FlBEOHzn1FS0Q1g7CQQ--7" value="" style="endArrow=classic;html=1;rounded=0;exitX=1;exitY=0.5;exitDx=0;exitDy=0;" edge="1" parent="ApoguqNmYwHQ0Cc2iYDs-1" source="CedR5HkErJwqgf97mrZx-3" target="FlBEOHzn1FS0Q1g7CQQ--8">
          <mxGeometry width="50" height="50" relative="1" as="geometry">
            <mxPoint x="495" y="610" as="sourcePoint" />
            <mxPoint x="515" y="530" as="targetPoint" />
          </mxGeometry>
        </mxCell>
        <mxCell id="FlBEOHzn1FS0Q1g7CQQ--8" value="" style="ellipse;html=1;shape=endState;fillColor=strokeColor;" vertex="1" parent="ApoguqNmYwHQ0Cc2iYDs-1">
          <mxGeometry x="569.9999999999999" y="515" width="30" height="30" as="geometry" />
        </mxCell>
        <mxCell id="FlBEOHzn1FS0Q1g7CQQ--9" value="" style="endArrow=classic;html=1;rounded=0;exitX=0.5;exitY=1;exitDx=0;exitDy=0;entryX=0.5;entryY=0;entryDx=0;entryDy=0;" edge="1" parent="ApoguqNmYwHQ0Cc2iYDs-1" source="CedR5HkErJwqgf97mrZx-0" target="FlBEOHzn1FS0Q1g7CQQ--8">
          <mxGeometry width="50" height="50" relative="1" as="geometry">
            <mxPoint x="395" y="500" as="sourcePoint" />
            <mxPoint x="585" y="510" as="targetPoint" />
          </mxGeometry>
        </mxCell>
      </root>
    </mxGraphModel>
  </diagram>
  <diagram name="狀態機-設定偏好修改" id="HQz0RUI-YE7fSzLsEYf7">
    <mxGraphModel grid="1" page="1" gridSize="10" guides="1" tooltips="1" connect="1" arrows="1" fold="1" pageScale="1" pageWidth="827" pageHeight="1169" math="0" shadow="0">
      <root>
        <mxCell id="UVMaAoXgVfjccB0SQU8n-0" />
        <mxCell id="UVMaAoXgVfjccB0SQU8n-1" parent="UVMaAoXgVfjccB0SQU8n-0" />
        <mxCell id="UVMaAoXgVfjccB0SQU8n-2" value="" style="ellipse;fillColor=strokeColor;html=1;" parent="UVMaAoXgVfjccB0SQU8n-1" vertex="1">
          <mxGeometry x="398" y="160" width="30" height="30" as="geometry" />
        </mxCell>
        <mxCell id="UVMaAoXgVfjccB0SQU8n-3" value="" style="endArrow=classic;html=1;rounded=0;exitX=0.5;exitY=1;exitDx=0;exitDy=0;" parent="UVMaAoXgVfjccB0SQU8n-1" source="UVMaAoXgVfjccB0SQU8n-2" edge="1">
          <mxGeometry width="50" height="50" relative="1" as="geometry">
            <mxPoint x="390" y="450" as="sourcePoint" />
            <mxPoint x="413" y="240" as="targetPoint" />
          </mxGeometry>
        </mxCell>
        <mxCell id="UVMaAoXgVfjccB0SQU8n-4" value="登入中" style="html=1;align=center;verticalAlign=top;rounded=1;absoluteArcSize=1;arcSize=10;dashed=0;whiteSpace=wrap;" parent="UVMaAoXgVfjccB0SQU8n-1" vertex="1">
          <mxGeometry x="344" y="240" width="140" height="40" as="geometry" />
        </mxCell>
        <mxCell id="UVMaAoXgVfjccB0SQU8n-5" value="偏好設定" style="html=1;align=center;verticalAlign=top;rounded=1;absoluteArcSize=1;arcSize=10;dashed=0;whiteSpace=wrap;" parent="UVMaAoXgVfjccB0SQU8n-1" vertex="1">
          <mxGeometry x="344" y="330" width="140" height="40" as="geometry" />
        </mxCell>
        <mxCell id="UVMaAoXgVfjccB0SQU8n-6" value="" style="endArrow=classic;html=1;rounded=0;exitX=0.5;exitY=1;exitDx=0;exitDy=0;entryX=0.5;entryY=0;entryDx=0;entryDy=0;" parent="UVMaAoXgVfjccB0SQU8n-1" source="UVMaAoXgVfjccB0SQU8n-4" target="UVMaAoXgVfjccB0SQU8n-5" edge="1">
          <mxGeometry width="50" height="50" relative="1" as="geometry">
            <mxPoint x="320" y="460" as="sourcePoint" />
            <mxPoint x="414" y="370" as="targetPoint" />
          </mxGeometry>
        </mxCell>
        <mxCell id="UVMaAoXgVfjccB0SQU8n-7" value="會員專區" style="edgeLabel;html=1;align=center;verticalAlign=middle;resizable=0;points=[];" parent="UVMaAoXgVfjccB0SQU8n-6" vertex="1" connectable="0">
          <mxGeometry x="-0.1638" relative="1" as="geometry">
            <mxPoint as="offset" />
          </mxGeometry>
        </mxCell>
        <mxCell id="UVMaAoXgVfjccB0SQU8n-9" value="" style="endArrow=classic;html=1;rounded=0;exitX=0.5;exitY=1;exitDx=0;exitDy=0;entryX=0.5;entryY=0;entryDx=0;entryDy=0;" parent="UVMaAoXgVfjccB0SQU8n-1" edge="1">
          <mxGeometry width="50" height="50" relative="1" as="geometry">
            <mxPoint x="413.58" y="370" as="sourcePoint" />
            <mxPoint x="413.58" y="420" as="targetPoint" />
          </mxGeometry>
        </mxCell>
        <mxCell id="UVMaAoXgVfjccB0SQU8n-10" value="修改偏好設定" style="edgeLabel;html=1;align=center;verticalAlign=middle;resizable=0;points=[];" parent="UVMaAoXgVfjccB0SQU8n-9" vertex="1" connectable="0">
          <mxGeometry x="-0.1638" relative="1" as="geometry">
            <mxPoint as="offset" />
          </mxGeometry>
        </mxCell>
        <mxCell id="UVMaAoXgVfjccB0SQU8n-14" value="會員資料修改完成" style="html=1;align=center;verticalAlign=top;rounded=1;absoluteArcSize=1;arcSize=10;dashed=0;whiteSpace=wrap;" parent="UVMaAoXgVfjccB0SQU8n-1" vertex="1">
          <mxGeometry x="344" y="420" width="140" height="40" as="geometry" />
        </mxCell>
        <mxCell id="UVMaAoXgVfjccB0SQU8n-19" value="" style="endArrow=classic;html=1;rounded=0;exitX=0.5;exitY=1;exitDx=0;exitDy=0;" parent="UVMaAoXgVfjccB0SQU8n-1" source="UVMaAoXgVfjccB0SQU8n-14" edge="1">
          <mxGeometry width="50" height="50" relative="1" as="geometry">
            <mxPoint x="448.0000000000001" y="530" as="sourcePoint" />
            <mxPoint x="414" y="510" as="targetPoint" />
          </mxGeometry>
        </mxCell>
        <mxCell id="UVMaAoXgVfjccB0SQU8n-20" value="" style="ellipse;html=1;shape=endState;fillColor=strokeColor;" parent="UVMaAoXgVfjccB0SQU8n-1" vertex="1">
          <mxGeometry x="397.9999999999999" y="510" width="30" height="30" as="geometry" />
        </mxCell>
      </root>
    </mxGraphModel>
  </diagram>
  <diagram name="狀態機-權重設定修改" id="nxP_LXUWGNjZnzjl25AR">
    <mxGraphModel grid="1" page="1" gridSize="10" guides="1" tooltips="1" connect="1" arrows="1" fold="1" pageScale="1" pageWidth="827" pageHeight="1169" math="0" shadow="0">
      <root>
        <mxCell id="_JBmC8z3cl88uV6GPcrS-0" />
        <mxCell id="_JBmC8z3cl88uV6GPcrS-1" parent="_JBmC8z3cl88uV6GPcrS-0" />
        <mxCell id="p-NCSalgOxaXQQgFzkr6-0" value="" style="ellipse;fillColor=strokeColor;html=1;" vertex="1" parent="_JBmC8z3cl88uV6GPcrS-1">
          <mxGeometry x="398" y="170" width="30" height="30" as="geometry" />
        </mxCell>
        <mxCell id="p-NCSalgOxaXQQgFzkr6-1" value="" style="endArrow=classic;html=1;rounded=0;exitX=0.5;exitY=1;exitDx=0;exitDy=0;" edge="1" parent="_JBmC8z3cl88uV6GPcrS-1" source="p-NCSalgOxaXQQgFzkr6-0">
          <mxGeometry width="50" height="50" relative="1" as="geometry">
            <mxPoint x="390" y="460" as="sourcePoint" />
            <mxPoint x="413" y="250" as="targetPoint" />
          </mxGeometry>
        </mxCell>
        <mxCell id="p-NCSalgOxaXQQgFzkr6-2" value="登入中" style="html=1;align=center;verticalAlign=top;rounded=1;absoluteArcSize=1;arcSize=10;dashed=0;whiteSpace=wrap;" vertex="1" parent="_JBmC8z3cl88uV6GPcrS-1">
          <mxGeometry x="344" y="250" width="140" height="40" as="geometry" />
        </mxCell>
        <mxCell id="p-NCSalgOxaXQQgFzkr6-3" value="權重設定" style="html=1;align=center;verticalAlign=top;rounded=1;absoluteArcSize=1;arcSize=10;dashed=0;whiteSpace=wrap;" vertex="1" parent="_JBmC8z3cl88uV6GPcrS-1">
          <mxGeometry x="344" y="340" width="140" height="40" as="geometry" />
        </mxCell>
        <mxCell id="p-NCSalgOxaXQQgFzkr6-4" value="" style="endArrow=classic;html=1;rounded=0;exitX=0.5;exitY=1;exitDx=0;exitDy=0;entryX=0.5;entryY=0;entryDx=0;entryDy=0;" edge="1" parent="_JBmC8z3cl88uV6GPcrS-1" source="p-NCSalgOxaXQQgFzkr6-2" target="p-NCSalgOxaXQQgFzkr6-3">
          <mxGeometry width="50" height="50" relative="1" as="geometry">
            <mxPoint x="320" y="470" as="sourcePoint" />
            <mxPoint x="414" y="380" as="targetPoint" />
          </mxGeometry>
        </mxCell>
        <mxCell id="p-NCSalgOxaXQQgFzkr6-5" value="會員專區" style="edgeLabel;html=1;align=center;verticalAlign=middle;resizable=0;points=[];" connectable="0" vertex="1" parent="p-NCSalgOxaXQQgFzkr6-4">
          <mxGeometry x="-0.1638" relative="1" as="geometry">
            <mxPoint as="offset" />
          </mxGeometry>
        </mxCell>
        <mxCell id="p-NCSalgOxaXQQgFzkr6-6" value="" style="endArrow=classic;html=1;rounded=0;exitX=0.5;exitY=1;exitDx=0;exitDy=0;entryX=0.5;entryY=0;entryDx=0;entryDy=0;" edge="1" parent="_JBmC8z3cl88uV6GPcrS-1">
          <mxGeometry width="50" height="50" relative="1" as="geometry">
            <mxPoint x="413.58" y="380" as="sourcePoint" />
            <mxPoint x="413.58" y="430" as="targetPoint" />
          </mxGeometry>
        </mxCell>
        <mxCell id="p-NCSalgOxaXQQgFzkr6-7" value="修改權重設定" style="edgeLabel;html=1;align=center;verticalAlign=middle;resizable=0;points=[];" connectable="0" vertex="1" parent="p-NCSalgOxaXQQgFzkr6-6">
          <mxGeometry x="-0.1638" relative="1" as="geometry">
            <mxPoint as="offset" />
          </mxGeometry>
        </mxCell>
        <mxCell id="p-NCSalgOxaXQQgFzkr6-8" value="權重設定修改完成" style="html=1;align=center;verticalAlign=top;rounded=1;absoluteArcSize=1;arcSize=10;dashed=0;whiteSpace=wrap;" vertex="1" parent="_JBmC8z3cl88uV6GPcrS-1">
          <mxGeometry x="344" y="430" width="140" height="40" as="geometry" />
        </mxCell>
        <mxCell id="p-NCSalgOxaXQQgFzkr6-9" value="" style="endArrow=classic;html=1;rounded=0;exitX=0.5;exitY=1;exitDx=0;exitDy=0;" edge="1" parent="_JBmC8z3cl88uV6GPcrS-1" source="p-NCSalgOxaXQQgFzkr6-8">
          <mxGeometry width="50" height="50" relative="1" as="geometry">
            <mxPoint x="448.0000000000001" y="540" as="sourcePoint" />
            <mxPoint x="414" y="520" as="targetPoint" />
          </mxGeometry>
        </mxCell>
        <mxCell id="p-NCSalgOxaXQQgFzkr6-10" value="" style="ellipse;html=1;shape=endState;fillColor=strokeColor;" vertex="1" parent="_JBmC8z3cl88uV6GPcrS-1">
          <mxGeometry x="397.9999999999999" y="520" width="30" height="30" as="geometry" />
        </mxCell>
      </root>
    </mxGraphModel>
  </diagram>
  <diagram name="狀態機-收藏商家管理" id="zURS9Uu1aAZbNPHwix6H">
    <mxGraphModel grid="1" page="1" gridSize="10" guides="1" tooltips="1" connect="1" arrows="1" fold="1" pageScale="1" pageWidth="827" pageHeight="1169" math="0" shadow="0">
      <root>
        <mxCell id="bGgEPJMQG9JETsG4OftO-0" />
        <mxCell id="bGgEPJMQG9JETsG4OftO-1" parent="bGgEPJMQG9JETsG4OftO-0" />
        <mxCell id="bGgEPJMQG9JETsG4OftO-2" value="" style="ellipse;fillColor=strokeColor;html=1;" vertex="1" parent="bGgEPJMQG9JETsG4OftO-1">
          <mxGeometry x="399" y="180" width="30" height="30" as="geometry" />
        </mxCell>
        <mxCell id="bGgEPJMQG9JETsG4OftO-3" value="" style="endArrow=classic;html=1;rounded=0;exitX=0.5;exitY=1;exitDx=0;exitDy=0;" edge="1" parent="bGgEPJMQG9JETsG4OftO-1" source="bGgEPJMQG9JETsG4OftO-2">
          <mxGeometry width="50" height="50" relative="1" as="geometry">
            <mxPoint x="391" y="470" as="sourcePoint" />
            <mxPoint x="414" y="260" as="targetPoint" />
          </mxGeometry>
        </mxCell>
        <mxCell id="bGgEPJMQG9JETsG4OftO-4" value="登入中" style="html=1;align=center;verticalAlign=top;rounded=1;absoluteArcSize=1;arcSize=10;dashed=0;whiteSpace=wrap;" vertex="1" parent="bGgEPJMQG9JETsG4OftO-1">
          <mxGeometry x="345" y="260" width="140" height="40" as="geometry" />
        </mxCell>
        <mxCell id="bGgEPJMQG9JETsG4OftO-5" value="收藏商家" style="html=1;align=center;verticalAlign=top;rounded=1;absoluteArcSize=1;arcSize=10;dashed=0;whiteSpace=wrap;" vertex="1" parent="bGgEPJMQG9JETsG4OftO-1">
          <mxGeometry x="345" y="350" width="140" height="40" as="geometry" />
        </mxCell>
        <mxCell id="bGgEPJMQG9JETsG4OftO-6" value="" style="endArrow=classic;html=1;rounded=0;exitX=0.5;exitY=1;exitDx=0;exitDy=0;entryX=0.5;entryY=0;entryDx=0;entryDy=0;" edge="1" parent="bGgEPJMQG9JETsG4OftO-1" source="bGgEPJMQG9JETsG4OftO-4" target="bGgEPJMQG9JETsG4OftO-5">
          <mxGeometry width="50" height="50" relative="1" as="geometry">
            <mxPoint x="321" y="480" as="sourcePoint" />
            <mxPoint x="415" y="390" as="targetPoint" />
          </mxGeometry>
        </mxCell>
        <mxCell id="bGgEPJMQG9JETsG4OftO-8" value="收藏商家列表" style="html=1;align=center;verticalAlign=top;rounded=1;absoluteArcSize=1;arcSize=10;dashed=0;whiteSpace=wrap;" vertex="1" parent="bGgEPJMQG9JETsG4OftO-1">
          <mxGeometry x="345" y="440" width="140" height="40" as="geometry" />
        </mxCell>
        <mxCell id="bGgEPJMQG9JETsG4OftO-9" value="" style="endArrow=classic;html=1;rounded=0;exitX=0.5;exitY=1;exitDx=0;exitDy=0;entryX=0.5;entryY=0;entryDx=0;entryDy=0;" edge="1" parent="bGgEPJMQG9JETsG4OftO-1">
          <mxGeometry width="50" height="50" relative="1" as="geometry">
            <mxPoint x="414.58" y="390" as="sourcePoint" />
            <mxPoint x="414.58" y="440" as="targetPoint" />
          </mxGeometry>
        </mxCell>
        <mxCell id="bGgEPJMQG9JETsG4OftO-10" value="[有收藏商家]" style="edgeLabel;html=1;align=center;verticalAlign=middle;resizable=0;points=[];" vertex="1" connectable="0" parent="bGgEPJMQG9JETsG4OftO-9">
          <mxGeometry x="-0.1638" relative="1" as="geometry">
            <mxPoint as="offset" />
          </mxGeometry>
        </mxCell>
        <mxCell id="bGgEPJMQG9JETsG4OftO-12" value="" style="endArrow=classic;html=1;rounded=0;exitX=0.5;exitY=1;exitDx=0;exitDy=0;entryX=0.5;entryY=0;entryDx=0;entryDy=0;" edge="1" parent="bGgEPJMQG9JETsG4OftO-1">
          <mxGeometry width="50" height="50" relative="1" as="geometry">
            <mxPoint x="414.58" y="480" as="sourcePoint" />
            <mxPoint x="414.58" y="530" as="targetPoint" />
          </mxGeometry>
        </mxCell>
        <mxCell id="bGgEPJMQG9JETsG4OftO-13" value="檢視" style="edgeLabel;html=1;align=center;verticalAlign=middle;resizable=0;points=[];" vertex="1" connectable="0" parent="bGgEPJMQG9JETsG4OftO-12">
          <mxGeometry x="-0.1638" relative="1" as="geometry">
            <mxPoint as="offset" />
          </mxGeometry>
        </mxCell>
        <mxCell id="bGgEPJMQG9JETsG4OftO-14" value="收藏商家資訊" style="html=1;align=center;verticalAlign=top;rounded=1;absoluteArcSize=1;arcSize=10;dashed=0;whiteSpace=wrap;" vertex="1" parent="bGgEPJMQG9JETsG4OftO-1">
          <mxGeometry x="345" y="530" width="140" height="40" as="geometry" />
        </mxCell>
        <mxCell id="AY4NEbuzhLersYtHGRkF-0" value="" style="endArrow=classic;html=1;rounded=0;entryX=0;entryY=0.5;entryDx=0;entryDy=0;" edge="1" parent="bGgEPJMQG9JETsG4OftO-1" target="AY4NEbuzhLersYtHGRkF-1">
          <mxGeometry width="50" height="50" relative="1" as="geometry">
            <mxPoint x="485" y="370" as="sourcePoint" />
            <mxPoint x="540" y="370" as="targetPoint" />
          </mxGeometry>
        </mxCell>
        <mxCell id="AY4NEbuzhLersYtHGRkF-2" value="[無收藏商家]" style="edgeLabel;html=1;align=center;verticalAlign=middle;resizable=0;points=[];" connectable="0" vertex="1" parent="AY4NEbuzhLersYtHGRkF-0">
          <mxGeometry x="-0.1651" y="1" relative="1" as="geometry">
            <mxPoint as="offset" />
          </mxGeometry>
        </mxCell>
        <mxCell id="AY4NEbuzhLersYtHGRkF-1" value="無資料" style="html=1;align=center;verticalAlign=top;rounded=1;absoluteArcSize=1;arcSize=10;dashed=0;whiteSpace=wrap;" vertex="1" parent="bGgEPJMQG9JETsG4OftO-1">
          <mxGeometry x="590" y="350" width="140" height="40" as="geometry" />
        </mxCell>
        <mxCell id="AY4NEbuzhLersYtHGRkF-4" value="" style="endArrow=classic;html=1;rounded=0;exitX=0.5;exitY=1;exitDx=0;exitDy=0;" edge="1" parent="bGgEPJMQG9JETsG4OftO-1" source="AY4NEbuzhLersYtHGRkF-1" target="AY4NEbuzhLersYtHGRkF-5">
          <mxGeometry width="50" height="50" relative="1" as="geometry">
            <mxPoint x="480" y="460" as="sourcePoint" />
            <mxPoint x="660" y="440" as="targetPoint" />
          </mxGeometry>
        </mxCell>
        <mxCell id="AY4NEbuzhLersYtHGRkF-5" value="" style="ellipse;html=1;shape=endState;fillColor=strokeColor;" vertex="1" parent="bGgEPJMQG9JETsG4OftO-1">
          <mxGeometry x="645" y="440" width="30" height="30" as="geometry" />
        </mxCell>
        <mxCell id="Y23Vps-4gc41OAY-_ZWN-0" value="收藏商家刪除" style="html=1;align=center;verticalAlign=top;rounded=1;absoluteArcSize=1;arcSize=10;dashed=0;whiteSpace=wrap;" vertex="1" parent="bGgEPJMQG9JETsG4OftO-1">
          <mxGeometry x="110" y="440" width="140" height="40" as="geometry" />
        </mxCell>
        <mxCell id="Y23Vps-4gc41OAY-_ZWN-1" value="" style="endArrow=classic;html=1;rounded=0;exitX=0;exitY=0.5;exitDx=0;exitDy=0;entryX=1;entryY=0.5;entryDx=0;entryDy=0;" edge="1" parent="bGgEPJMQG9JETsG4OftO-1" source="bGgEPJMQG9JETsG4OftO-8" target="Y23Vps-4gc41OAY-_ZWN-0">
          <mxGeometry width="50" height="50" relative="1" as="geometry">
            <mxPoint x="424.58" y="490" as="sourcePoint" />
            <mxPoint x="424.58" y="540" as="targetPoint" />
          </mxGeometry>
        </mxCell>
        <mxCell id="Y23Vps-4gc41OAY-_ZWN-2" value="刪除" style="edgeLabel;html=1;align=center;verticalAlign=middle;resizable=0;points=[];" connectable="0" vertex="1" parent="Y23Vps-4gc41OAY-_ZWN-1">
          <mxGeometry x="-0.1638" relative="1" as="geometry">
            <mxPoint as="offset" />
          </mxGeometry>
        </mxCell>
        <mxCell id="Qh2OvUmFxAn45Y_qedoV-0" value="" style="endArrow=classic;html=1;rounded=0;exitX=0.5;exitY=1;exitDx=0;exitDy=0;" edge="1" parent="bGgEPJMQG9JETsG4OftO-1" source="bGgEPJMQG9JETsG4OftO-14" target="Qh2OvUmFxAn45Y_qedoV-2">
          <mxGeometry width="50" height="50" relative="1" as="geometry">
            <mxPoint x="435" y="680" as="sourcePoint" />
            <mxPoint x="415" y="620" as="targetPoint" />
          </mxGeometry>
        </mxCell>
        <mxCell id="Qh2OvUmFxAn45Y_qedoV-2" value="" style="ellipse;html=1;shape=endState;fillColor=strokeColor;" vertex="1" parent="bGgEPJMQG9JETsG4OftO-1">
          <mxGeometry x="400" y="605" width="30" height="30" as="geometry" />
        </mxCell>
        <mxCell id="Qh2OvUmFxAn45Y_qedoV-3" value="" style="endArrow=classic;html=1;rounded=0;exitX=0.5;exitY=1;exitDx=0;exitDy=0;" edge="1" parent="bGgEPJMQG9JETsG4OftO-1" source="Y23Vps-4gc41OAY-_ZWN-0" target="Qh2OvUmFxAn45Y_qedoV-4">
          <mxGeometry width="50" height="50" relative="1" as="geometry">
            <mxPoint x="340" y="460" as="sourcePoint" />
            <mxPoint x="180" y="530" as="targetPoint" />
          </mxGeometry>
        </mxCell>
        <mxCell id="Qh2OvUmFxAn45Y_qedoV-4" value="" style="ellipse;html=1;shape=endState;fillColor=strokeColor;" vertex="1" parent="bGgEPJMQG9JETsG4OftO-1">
          <mxGeometry x="165" y="540" width="30" height="30" as="geometry" />
        </mxCell>
      </root>
    </mxGraphModel>
  </diagram>
</mxfile>
